<svg width="20" height="10" viewBox="0 0 20 10" fill="none" xmlns="http://www.w3.org/2000/svg">
<path d="M5.99083 0.75C5.99083 0.75 5.21416 0.754167 4.65583 1.49C4.15916 2.14417 4.28583 2.70417 4.28583 2.70417C4.28583 2.70417 4.95916 2.82083 5.55166 2.10917C6.10666 1.4425 5.99083 0.75 5.99083 0.75ZM9.71583 1.26333V3.19167H8.93333V4.36083H9.71666V7.77583C9.71666 8.68333 10.25 9.23917 11.2592 9.23917C11.5847 9.23917 11.895 9.19389 12.19 9.10333C12.4844 9.01222 12.7339 8.92139 12.9383 8.83083L12.6325 7.62833C12.5408 7.66583 12.1217 7.84333 11.8042 7.84333C11.4692 7.84333 11.2375 7.67667 11.2375 7.265V4.36083H12.485V3.19083H11.2367V1.2625L9.71583 1.26333ZM5.8725 2.79417C5.17833 2.79417 4.645 3.18917 4.3575 3.18917C4.02333 3.18917 3.52416 2.8175 2.88 2.8175C1.88916 2.8175 0.833328 3.70417 0.833328 5.395C0.833328 7.11167 2.08 9.25 3.06666 9.25C3.41083 9.25 3.94 8.9025 4.47333 8.9025C4.99666 8.9025 5.38249 9.23667 5.87916 9.23667C6.96083 9.23667 7.76083 6.98417 7.76083 6.98417C7.76083 6.98417 6.61583 6.54083 6.61583 5.25417C6.61583 4.11417 7.535 3.64417 7.535 3.64417C7.535 3.64417 7.065 2.79417 5.87 2.79417M13.1408 3.19083L15.3308 9.13583H16.9758L19.1667 3.19167H17.7375L16.2175 7.9L14.7083 3.19167L13.1408 3.19083Z" fill="black"/>
</svg>
