<?xml version="1.0" encoding="utf-8"?>
<!-- Generator: Adobe Illustrator 23.0.2, SVG Export Plug-In . SVG Version: 6.00 Build 0)  -->
<svg version="1.1"
	 id="svg2" xmlns:cc="http://creativecommons.org/ns#" xmlns:dc="http://purl.org/dc/elements/1.1/" xmlns:inkscape="http://www.inkscape.org/namespaces/inkscape" xmlns:rdf="http://www.w3.org/1999/02/22-rdf-syntax-ns#" xmlns:sodipodi="http://sodipodi.sourceforge.net/DTD/sodipodi-0.dtd" xmlns:svg="http://www.w3.org/2000/svg"
	 xmlns="http://www.w3.org/2000/svg" xmlns:xlink="http://www.w3.org/1999/xlink" x="0px" y="0px" viewBox="0 0 1603.1 593.6"
	 style="enable-background:new 0 0 1603.1 593.6;" xml:space="preserve">
<polygon points="1197.5,166.3 1109.2,166.3 1006.1,508.4 1004.5,508.4 901.4,166.3 811.6,166.3 959.6,590.8 1050.2,590.8 "/>
<polygon points="1438.9,166.4 1357.6,166.4 1357.6,338.4 1193.8,338.4 1193.8,418.8 1357.6,418.8 1357.6,590.8 1438.9,590.8 
	1438.9,418.8 1603.1,418.8 1603.1,338.4 1438.9,338.4 "/>
<path d="M604.3,68.7v97.2h-59.7v66.8h59.7v249.8c0,79.3,32.4,110.9,115.6,110.9c18.8,0,37.5-1.6,46.9-3.9v-66.8
	c-5.4,1.2-19.1,2-27.7,2c-34.4,0-50-16-50-51.5V232.7h78.1v-66.8h-78.1V68.7H604.3z"/>
<path d="M209.5,155.3c23.3,8.7,38.3,13.2,44.8,13.2c4.9,0,21.5-5.2,49.7-15.5c26.7-9.6,49.2-13.6,67.6-12
	c49.9,4,87.5,23.7,112.4,59.2c-44.7,27.1-66.8,65-66.3,113.6c0.4,37.9,14.1,69.4,41.1,94.4c12.2,11.6,25.9,20.6,41.1,27
	c-3.2,9.3-6.7,18.5-10.4,27.3c-9,20.7-19.6,39.8-31.9,57.4c-16.8,23.9-30.5,40.5-41.1,49.7c-16.4,15.1-34,22.8-52.8,23.3
	c-13.5,0-29.8-3.8-48.8-11.7c-19-7.8-36.5-11.6-52.5-11.6c-16.8,0-34.8,3.8-54,11.6c-19.3,7.8-34.8,11.9-46.7,12.3
	c-18.1,0.8-36.1-7.2-54-23.9c-11.5-10-25.8-27.2-43-51.4c-18.4-25.9-33.6-56-45.5-90.3C6.4,390.8,0,354.9,0,320.2
	c0-39.8,8.6-74.1,25.8-102.8c13.5-23.1,31.5-41.3,54.1-54.7c22.5-13.4,46.9-20.2,73.1-20.6C167.3,142.1,186.2,146.5,209.5,155.3z
	 M342.5,94.9C364.2,69.2,375,41.5,375,11.8c0-4-0.2-7.9-0.7-11.8c-15.1,0.8-31.1,5.3-48,13.6c-17,8.4-31,18.9-42,31.5
	c-22,24.9-34.4,55.4-34.4,83.9c0,3.9,0.3,7.6,0.7,11.2C284.9,143,316.4,125.4,342.5,94.9z"/>
</svg>
