<svg width="18" height="18" viewBox="0 0 18 18" fill="none" xmlns="http://www.w3.org/2000/svg">
<path d="M3.80001 0.666656C2.96899 0.666656 2.17202 0.996775 1.5844 1.58439C0.99679 2.172 0.666672 2.96898 0.666672 3.79999V14.2C0.666672 15.031 0.99679 15.828 1.5844 16.4156C2.17202 17.0032 2.96899 17.3333 3.80001 17.3333H14.2C14.6115 17.3333 15.0189 17.2523 15.3991 17.0948C15.7792 16.9373 16.1246 16.7065 16.4156 16.4156C16.7066 16.1246 16.9374 15.7792 17.0948 15.3991C17.2523 15.0189 17.3333 14.6115 17.3333 14.2V3.79999C17.3333 3.38851 17.2523 2.98107 17.0948 2.60091C16.9374 2.22076 16.7066 1.87535 16.4156 1.58439C16.1246 1.29343 15.7792 1.06263 15.3991 0.905167C15.0189 0.747703 14.6115 0.666656 14.2 0.666656H3.80001ZM13.5783 3.30332C13.7183 3.33916 13.8567 3.39916 13.9058 3.51499C13.7642 3.93249 13.7733 4.38832 13.7525 4.80916C13.9608 4.81749 14.1658 4.82832 14.5075 4.82832C14.6775 4.82832 14.8742 4.82832 15.0925 4.82166C15.2008 4.84582 15.2142 5.00499 15.25 5.08416C15.2208 5.13778 15.1843 5.18713 15.1417 5.23082H13.7392C13.7333 5.41166 13.725 5.55832 13.725 5.83082C13.7239 6.00193 13.7256 6.19666 13.73 6.41499C13.7058 6.52499 13.5483 6.53666 13.4692 6.57332C13.4158 6.54378 13.3667 6.50705 13.3233 6.46416V5.22749C13.2242 5.22582 13.1475 5.22332 13.0133 5.22416C12.885 5.22416 12.7392 5.22416 12.5633 5.23082C12.4533 5.23082 12.3508 5.21166 12.1075 5.14416C12.0722 5.13098 12.0414 5.10811 12.0185 5.07818C11.9957 5.04826 11.9818 5.01249 11.9783 4.97499C12.015 4.83499 12.0767 4.69499 12.1917 4.64582C12.5558 4.76916 12.9483 4.76416 13.3225 4.77916C13.325 4.64999 13.3292 4.52916 13.3292 4.33749C13.3292 4.20916 13.3292 4.06332 13.3225 3.88749C13.3225 3.77749 13.3392 3.67332 13.4075 3.42999C13.4212 3.39495 13.4445 3.36447 13.4747 3.34207C13.5049 3.31966 13.5408 3.30623 13.5783 3.30332ZM5.27834 4.66749C6.35324 4.64477 7.42431 4.80309 8.44667 5.13582C9.12112 5.34471 9.77584 5.60193 10.4108 5.90749C10.9016 6.15037 11.3787 6.41994 11.84 6.71499C11.9567 6.79166 12.6317 7.29416 12.7383 7.37082C12.955 7.54999 13.2442 7.80249 13.4533 8.01249C13.9059 8.44928 14.29 8.95189 14.5925 9.50332C14.6508 9.61999 14.6967 9.73499 14.7758 9.86749C14.8392 9.99416 14.8903 10.1247 14.9292 10.2592C14.9492 10.3367 14.9708 10.4533 14.9783 10.4633C15.0167 10.4633 15.0633 10.7025 15.0533 10.795C15.0597 11.0174 15.0438 11.2399 15.0058 11.4592L15.0192 11.44C14.9891 11.593 14.9447 11.7428 14.8867 11.8875C14.8165 12.0436 14.7395 12.1965 14.6558 12.3458C14.4755 12.6405 14.2569 12.9101 14.0058 13.1475C13.2021 13.7553 12.2467 14.1307 11.2442 14.2325C10.5513 14.3163 9.84981 14.2972 9.1625 14.1758C8.9681 14.1385 8.77445 14.0974 8.58167 14.0525V14.2917C8.57134 14.361 8.5523 14.4288 8.52501 14.4933C8.50049 14.5403 8.46536 14.581 8.4224 14.6121C8.37944 14.6432 8.32983 14.6639 8.27751 14.6725C8.1372 14.7101 7.98867 14.7031 7.85251 14.6525C7.75505 14.6022 7.67279 14.5267 7.61419 14.434C7.5556 14.3413 7.5228 14.2346 7.51917 14.125C7.49 13.9333 7.455 13.6125 7.455 13.6125L7.14667 13.4625C6.74045 13.2621 6.35257 13.0265 5.9875 12.7583C5.78379 12.5972 5.58455 12.4304 5.39001 12.2583C5.13155 12.0326 4.90949 11.7684 4.73167 11.475C4.66145 11.3729 4.61762 11.255 4.6041 11.1318C4.59057 11.0087 4.60778 10.8841 4.65417 10.7692C4.89245 10.4133 5.24303 10.1475 5.65 10.0142C6.0947 9.83086 6.55599 9.69077 7.02751 9.59582C7.16668 9.57639 7.3051 9.55192 7.4425 9.52249L7.455 9.50916C7.46913 9.34567 7.47358 9.1815 7.46834 9.01749C7.46834 8.89082 7.56584 8.06916 7.59334 7.88999C7.62001 7.69916 7.6725 7.51166 7.75167 7.33499C7.77637 7.30967 7.80942 7.29419 7.84468 7.29143C7.87994 7.28867 7.915 7.29882 7.94334 7.31999C8.33001 7.55916 8.43501 8.37082 8.46417 8.78332C8.47834 9.03332 8.49417 9.41999 8.49417 9.41999C8.49417 9.41999 8.92751 9.40416 9.19501 9.41999C9.46945 9.43332 9.74167 9.4611 10.0117 9.50332C10.4992 9.57166 10.975 9.70332 11.4283 9.89166C11.7458 10.0383 12 10.2925 12.1425 10.6117C12.1884 10.7224 12.207 10.8426 12.1969 10.9621C12.1867 11.0816 12.1481 11.1969 12.0842 11.2983C12.0103 11.432 11.905 11.5457 11.7774 11.6296C11.6498 11.7135 11.5037 11.7651 11.3517 11.78C11.1709 11.7824 10.992 11.7427 10.8292 11.6642C10.8211 11.6564 10.8147 11.6471 10.8103 11.6368C10.8059 11.6264 10.8037 11.6154 10.8037 11.6042C10.8037 11.593 10.8059 11.5819 10.8103 11.5716C10.8147 11.5612 10.8211 11.5519 10.8292 11.5442C10.8292 11.5292 10.9958 11.4475 11.08 11.3992C11.1247 11.3786 11.1642 11.3484 11.1958 11.3108C11.2708 11.245 11.3442 11.1767 11.3375 11.0883C11.3275 11.0017 11.2058 10.9092 11.0958 10.865C10.2656 10.5943 9.39977 10.4483 8.52667 10.4317L8.585 13.2333C8.585 13.2333 8.81667 13.2758 9 13.305C9.10834 13.3183 9.55667 13.3633 9.67251 13.3633C10.6125 13.4234 11.554 13.2716 12.4275 12.9192C12.7906 12.7642 13.116 12.5328 13.3817 12.2408C13.553 12.0417 13.6824 11.8101 13.762 11.5598C13.8416 11.3095 13.8699 11.0456 13.845 10.7842C13.7285 10.1468 13.4489 9.55046 13.0333 9.05332C12.0121 7.88473 10.7224 6.98163 9.275 6.42166C7.95067 5.86019 6.53563 5.54313 5.09834 5.48582C4.5614 5.4625 4.0236 5.50419 3.49667 5.60999C3.43917 5.62249 3.37917 5.64416 3.32167 5.65999C3.27367 5.66753 3.22853 5.68766 3.19084 5.71832L3.17001 5.73666L3.21917 5.75582C3.26084 5.78082 3.45167 5.78832 3.54417 5.80999C3.58628 5.8147 3.62691 5.82827 3.6634 5.84981C3.69988 5.87136 3.73138 5.90039 3.75584 5.93499C3.77315 5.95807 3.7825 5.98614 3.7825 6.01499C3.7825 6.04384 3.77315 6.07191 3.75584 6.09499C3.66 6.21082 3.30584 6.19082 3.15667 6.16832C3.00251 6.14916 2.79167 6.09332 2.75501 5.94832C2.73339 5.78028 2.77824 5.61045 2.88001 5.47499C2.9623 5.33319 3.07355 5.21033 3.20651 5.11441C3.33947 5.0185 3.49115 4.95168 3.65167 4.91832C4.18328 4.7776 4.72823 4.69324 5.2775 4.66666L5.27834 4.66749ZM7.45084 10.4467C7.45084 10.4467 7.04001 10.475 6.75251 10.5025C6.26371 10.5546 5.78098 10.6531 5.31084 10.7967C5.19417 10.8383 4.95167 10.9433 4.93584 11.0658C4.93396 11.127 4.94587 11.1878 4.97068 11.2438C4.99549 11.2998 5.03257 11.3495 5.07917 11.3892C5.12917 11.4475 5.41251 11.72 5.49084 11.785C5.95501 12.1517 6.46334 12.4592 7.00334 12.7017C7.17667 12.7725 7.45834 12.8733 7.45834 12.8733C7.45834 12.8733 7.44251 12.065 7.45001 11.2733L7.45084 10.4467Z" fill="black"/>
</svg>
