<svg width="17" height="17" viewBox="0 0 17 17" fill="none" xmlns="http://www.w3.org/2000/svg">
<path d="M12.4833 6.97499C12.1987 6.9722 11.9195 7.05387 11.6813 7.20966C11.443 7.36545 11.2562 7.58838 11.1446 7.85027C11.033 8.11216 11.0015 8.40127 11.0541 8.68105C11.1067 8.96084 11.2411 9.21875 11.4402 9.4222C11.6393 9.62565 11.8943 9.7655 12.1729 9.82409C12.4515 9.88268 12.7412 9.85737 13.0054 9.75137C13.2697 9.64536 13.4965 9.46342 13.6574 9.22852C13.8182 8.99363 13.9059 8.71632 13.9092 8.43165C13.9117 8.24214 13.8767 8.05399 13.8063 7.87803C13.7359 7.70207 13.6314 7.54176 13.4988 7.40631C13.3663 7.27087 13.2082 7.16297 13.0338 7.0888C12.8594 7.01464 12.672 6.97567 12.4825 6.97415M12.4692 9.54332C12.2455 9.54398 12.0266 9.47828 11.8403 9.35453C11.6539 9.23079 11.5085 9.05455 11.4223 8.84813C11.3361 8.6417 11.3131 8.41435 11.3561 8.19484C11.3992 7.97533 11.5064 7.77352 11.6642 7.61494C11.8219 7.45635 12.0232 7.34812 12.2425 7.30394C12.4617 7.25975 12.6892 7.28159 12.8961 7.3667C13.103 7.45181 13.2799 7.59636 13.4046 7.78207C13.5293 7.96777 13.5962 8.18629 13.5967 8.40999C13.5973 8.55851 13.5687 8.7057 13.5123 8.84312C13.4559 8.98054 13.373 9.10548 13.2683 9.21078C13.1635 9.31607 13.039 9.39965 12.9019 9.45671C12.7647 9.51378 12.6177 9.54321 12.4692 9.54332ZM7.9875 9.01582H7.20583V9.97415H7.9875C8.10174 9.95627 8.20584 9.89816 8.28101 9.8103C8.35619 9.72245 8.3975 9.61062 8.3975 9.49499C8.3975 9.37935 8.35619 9.26753 8.28101 9.17967C8.20584 9.09181 8.10174 9.0337 7.9875 9.01582ZM7.9875 6.89499H7.20583V7.83999H7.9875C8.101 7.82343 8.20475 7.76657 8.27977 7.67981C8.35479 7.59305 8.39608 7.48219 8.39608 7.36749C8.39608 7.25279 8.35479 7.14192 8.27977 7.05516C8.20475 6.9684 8.101 6.91154 7.9875 6.89499ZM14.6975 0.0833188H1.5275C1.33192 0.0827707 1.13815 0.12082 0.957298 0.195287C0.776446 0.269753 0.612065 0.379173 0.473573 0.517278C0.335082 0.655382 0.225202 0.819456 0.15023 1.0001C0.0752576 1.18074 0.0366661 1.3744 0.0366669 1.56999V14.7458C0.0366654 14.9414 0.07529 15.1351 0.150325 15.3158C0.225359 15.4964 0.335327 15.6605 0.473918 15.7985C0.612509 15.9366 0.776995 16.0459 0.957938 16.1202C1.13888 16.1946 1.33272 16.2324 1.52833 16.2317H14.7033C15.0974 16.2317 15.4753 16.0751 15.754 15.7965C16.0326 15.5178 16.1892 15.1399 16.1892 14.7458V1.57165C16.1894 1.37593 16.151 1.18209 16.0761 1.00125C16.0012 0.820418 15.8914 0.656147 15.7529 0.517866C15.6143 0.379585 15.4499 0.270016 15.2689 0.195445C15.088 0.120874 14.8932 0.0827702 14.6975 0.0833188ZM5.425 11.2892H3.89167V9.09832H2.8975V11.29H1.3225V5.63749H2.895V7.74665H3.88833V5.63832H5.425V11.2892ZM12.47 11.3142C11.9295 11.3146 11.3998 11.1631 10.9412 10.8769C10.4827 10.5908 10.1138 10.1815 9.87667 9.69582C9.85015 10.1272 9.66012 10.5321 9.34532 10.8282C9.03052 11.1243 8.61465 11.2891 8.1825 11.2892H5.74167V5.63499H8.36167C8.75617 5.66712 9.12598 5.84 9.40363 6.1221C9.68129 6.40419 9.84829 6.77669 9.87417 7.17165C10.1542 6.5846 10.6257 6.11031 11.2111 5.82677C11.7964 5.54322 12.4609 5.46731 13.0951 5.61149C13.7294 5.75568 14.2957 6.11139 14.7009 6.62014C15.1062 7.12889 15.3263 7.76039 15.325 8.41082C15.3279 9.17316 15.0297 9.90581 14.4952 10.4494C13.9607 10.9929 13.2331 11.3034 12.4708 11.3133M9.0225 8.40999C9.26164 8.48796 9.46917 8.64112 9.61417 8.84665C9.57166 8.58755 9.57166 8.32325 9.61417 8.06415C9.45445 8.23411 9.24897 8.35422 9.0225 8.40999Z" fill="black"/>
</svg>
