<?xml version="1.0" encoding="UTF-8" standalone="no"?>
<svg
   viewBox="0 0 1000 388.02564"
   version="1.1"
   id="svg4"
   sodipodi:docname="Max_Original_2023.svg"
   width="1000"
   height="388.02563"
   inkscape:version="1.3.2 (091e20e, 2023-11-25, custom)"
   xml:space="preserve"
   xmlns:inkscape="http://www.inkscape.org/namespaces/inkscape"
   xmlns:sodipodi="http://sodipodi.sourceforge.net/DTD/sodipodi-0.dtd"
   xmlns="http://www.w3.org/2000/svg"
   xmlns:svg="http://www.w3.org/2000/svg"><defs
     id="defs8" /><sodipodi:namedview
     id="namedview6"
     pagecolor="#ffffff"
     bordercolor="#111111"
     borderopacity="1"
     inkscape:showpageshadow="0"
     inkscape:pageopacity="0"
     inkscape:pagecheckerboard="1"
     inkscape:deskcolor="#d1d1d1"
     showgrid="false"
     inkscape:zoom="0.6"
     inkscape:cx="487.5"
     inkscape:cy="340.83333"
     inkscape:window-width="1366"
     inkscape:window-height="705"
     inkscape:window-x="-8"
     inkscape:window-y="-8"
     inkscape:window-maximized="1"
     inkscape:current-layer="svg4"
     showguides="true" /><path
     d="M 61.033203,265.87305 C 24.841917,265.87305 0,295.61743 0,326.94922 c 0,31.33183 24.841917,61.07617 61.033203,61.07617 36.191338,0 61.033207,-29.74434 61.033207,-61.07617 0,-31.33179 -24.841869,-61.07617 -61.033207,-61.07617 z m 378.027347,0 c -36.19113,0 -61.03321,28.26884 -61.03321,61.07617 0,32.80729 24.8421,61.07617 61.03321,61.07617 36.19095,0 55.70508,-30.02465 55.70507,-55.45312 v -13.59961 h -54.11718 v 22.31836 h 28.21093 c -2.53959,12.397 -13.39625,21.88281 -29.79882,21.88281 -19.46152,0 -34.63086,-14.38964 -34.63086,-36.22461 0,-21.83499 14.8781,-36.23047 34.63086,-36.23047 10.8288,0 20.17351,4.78951 26.42382,12.45312 l 18.31836,-17.77539 c -10.75956,-11.76274 -26.26289,-19.52343 -44.74218,-19.52343 z m -268.09766,2.18359 V 385.8418 h 25.06445 v -42.13672 h 10.92774 c 4.88944,4.26628 11.39248,10.81064 17.05859,19.48437 5.48648,8.39873 8.90106,16.61497 10.9375,22.65235 h 26.48828 c -1.87566,-6.05595 -6.09568,-16.79561 -15.14258,-29.91211 -4.51678,-6.5486 -9.27184,-11.80149 -13.6582,-15.93555 11.54796,-5.21349 21.17383,-16.05842 21.17383,-33.39258 0,-25.22555 -17.15079,-38.54492 -39.55469,-38.54492 z m 133.38867,0 V 385.8418 h 25.06446 V 268.05664 Z m 237.98438,0 V 385.8418 h 25.0664 V 268.05664 Z m 269.13476,0 c -2.89382,5.96238 -9.01153,19.83097 -19.89648,50.14844 -9.9578,27.73503 -16.47383,52.56116 -20.03711,67.63672 h 26.1543 c 1.55568,-6.80176 3.36305,-14.14198 5.3457,-21.51563 h 44.3125 c 1.94861,7.85766 3.60064,15.2367 4.89258,21.51563 H 880.125 c -3.03175,-12.40396 -10.08887,-39.20181 -21.82031,-71.87696 -8.1723,-22.76197 -14.46874,-37.1772 -18.71485,-45.9082 z m 113.91797,0 V 385.8418 H 1000 v -24.85743 h -47.03516 v -92.92773 z m -300.5957,0.004 V 385.8418 h 25.06445 v -73.58985 l 55.64453,73.58985 h 23.85938 V 268.0625 h -25.62696 v 73.58984 L 648.0957,268.0625 Z M 196.02734,290.16211 H 209.25 c 10.54163,0 19.49609,3.56088 19.49609,16.43945 0,12.87858 -8.95448,17.28516 -19.49609,17.28516 h -13.22266 z m -134.994137,0.55664 c 19.752806,0 34.63086,15.87119 34.630859,36.23047 0,20.35931 -14.878023,36.22461 -34.630859,36.22461 -19.752724,0 -34.630859,-15.8653 -34.630859,-36.22461 0,-20.35928 14.878105,-36.23047 34.630859,-36.23047 z m 764.603517,5.61914 c 5.35598,14.85273 11.14425,31.42905 15.25976,44.66992 h -30.85351 c 4.67823,-14.27048 10.51697,-30.74173 15.59375,-44.66992 z"
     style="fill:#002be7;stroke-width:1.28552"
     id="path21" /><path
     d="m 235.94336,0 c -21.04362,0 -42.41852,9.3548005 -69.8125,30.398437 V 5.3457031 H 114.3457 V 205.75586 h 55.12696 V 81.162109 c 24.05164,-19.038253 35.06753,-25.052734 44.09179,-25.052734 10.68252,0 17.69922,6.684122 17.69922,23.382812 V 205.75586 h 55.10938 V 80.830078 c 24.05166,-18.703993 34.74627,-24.720703 44.09179,-24.720703 10.69538,0 17.70508,6.684122 17.70508,23.382812 V 205.75586 H 403.2793 V 60.121094 C 403.2793,15.025879 377.55415,0 352.83398,0 331.7904,0 310.41198,8.6885508 282.34961,30.066406 273.35112,7.6730138 253.64464,0 235.94336,0 Z m 279.25391,0 c -54.77494,0 -100.20704,47.09933 -100.20704,105.55078 0,58.45145 45.4321,105.55078 100.20704,105.55078 27.05961,0 50.44189,-10.0114 68.49023,-31.73633 v 26.39063 h 52.44531 V 5.3457031 H 583.6875 V 31.736328 C 565.63916,10.011504 542.25688,0 515.19727,0 Z M 645.81836,5.3457031 C 668.5317,40.746008 694.2506,72.481906 724.31641,104.21875 694.2506,137.2796 668.5317,171.69235 645.81836,205.75586 h 66.46484 c 15.69487,-25.38694 33.39657,-48.4339 53.78321,-70.14453 20.03964,21.71063 36.73754,44.75759 52.44531,70.14453 h 67.13672 C 862.601,170.68975 837.54823,137.2796 807.48242,104.21875 837.21413,72.481906 862.601,39.756181 885.64844,5.3457031 H 819.84961 C 803.48627,30.732648 785.78465,52.11202 766.06641,73.154297 746.02687,52.11202 728.32517,30.732648 712.2832,5.3457031 Z M 523.53906,46.427734 c 32.75241,0 59.11719,26.370808 59.11719,59.123046 0,32.75231 -26.36478,59.12305 -59.11719,59.12305 -32.75221,0 -59.12304,-26.37074 -59.12304,-59.12305 0,-32.752238 26.37083,-59.123046 59.12304,-59.123046 z m 0,13.361328 c -25.35291,0 -45.76172,20.408789 -45.76172,45.761718 0,25.353 20.40881,45.76172 45.76172,45.76172 25.35314,0 45.76172,-20.40872 45.76172,-45.76172 0,-25.352929 -20.40858,-45.761718 -45.76172,-45.761718 z"
     style="fill:#002be7;stroke-width:1.28552"
     id="path20" /></svg>
