<?xml version="1.0" encoding="UTF-8" standalone="no"?>
<!-- Created with Inkscape (http://www.inkscape.org/) -->

<svg
   xmlns:dc="http://purl.org/dc/elements/1.1/"
   xmlns:cc="http://creativecommons.org/ns#"
   xmlns:rdf="http://www.w3.org/1999/02/22-rdf-syntax-ns#"
   xmlns:svg="http://www.w3.org/2000/svg"
   xmlns="http://www.w3.org/2000/svg"
   xmlns:sodipodi="http://sodipodi.sourceforge.net/DTD/sodipodi-0.dtd"
   xmlns:inkscape="http://www.inkscape.org/namespaces/inkscape"
   width="1000"
   height="299.71472"
   viewBox="0 0 100 29.971473"
   version="1.1"
   id="svg8"
   inkscape:version="0.92.4 (5da689c313, 2019-01-14)"
   sodipodi:docname="A.svg">
  <defs
     id="defs2" />
  <sodipodi:namedview
     id="base"
     pagecolor="#ffffff"
     bordercolor="#666666"
     borderopacity="1.0"
     inkscape:pageopacity="0.0"
     inkscape:pageshadow="2"
     inkscape:zoom="0.15328467"
     inkscape:cx="1956.6107"
     inkscape:cy="-253.60654"
     inkscape:document-units="px"
     inkscape:current-layer="layer1"
     showgrid="false"
     units="px"
     showguides="true"
     inkscape:guide-bbox="true"
     fit-margin-top="0"
     fit-margin-left="0"
     fit-margin-right="0"
     fit-margin-bottom="0"
     inkscape:window-width="1015"
     inkscape:window-height="1023"
     inkscape:window-x="894"
     inkscape:window-y="-5"
     inkscape:window-maximized="0">
    <inkscape:grid
       type="xygrid"
       id="grid18"
       originx="59.999999"
       originy="107.90279" />
    <sodipodi:guide
       position="18.614583,29.943264"
       orientation="0,1"
       id="guide33"
       inkscape:locked="false" />
  </sodipodi:namedview>
  <metadata
     id="metadata5">
    <rdf:RDF>
      <cc:Work
         rdf:about="">
        <dc:format>image/svg+xml</dc:format>
        <dc:type
           rdf:resource="http://purl.org/dc/dcmitype/StillImage" />
        <dc:title></dc:title>
      </cc:Work>
    </rdf:RDF>
  </metadata>
  <g
     inkscape:label="Layer 1"
     inkscape:groupmode="layer"
     id="layer1"
     transform="translate(60,-190.18329)">
    <path
       style="fill:#000000;stroke:none;stroke-width:0.00749963;stroke-linecap:butt;stroke-linejoin:miter;stroke-opacity:1"
       d="m -60,219.73394 v -18.92907 h 3.929808 l 4.289789,8.42959 c 0.648446,1.21112 1.777798,3.86041 1.777798,3.86041 0,0 1.044131,-2.50161 1.699619,-3.73559 l 4.382199,-8.55441 h 3.929807 v 18.92907 h -3.539826 v -8.54958 c 0,-2.28852 0.243078,-4.32451 0.243078,-4.75187 0,-0.0605 -0.02184,-0.0692 -0.05193,-0.0667 -0.04098,-2e-4 -0.05532,0.0409 -0.07115,0.0788 -0.645726,1.54697 -1.256706,3.14524 -2.116049,4.72763 l -4.463541,8.58002 -4.472177,-8.55211 -2.117588,-4.69554 c -0.03986,-0.0849 -0.05873,-0.13633 -0.08942,-0.13633 -0.04748,0 -0.05509,0.0166 -0.05509,0.0501 0,0.22126 0.234503,2.00269 0.234503,5.366 v 7.94961 z"
       id="path31"
       inkscape:connector-curvature="0"
       sodipodi:nodetypes="ccccccccccccccccccccccc" />
    <path
       style="fill:#000000;stroke:none;stroke-width:0.00749963;stroke-linecap:butt;stroke-linejoin:miter;stroke-opacity:1"
       d="m -37.561098,200.80487 h 3.539826 v 12.2694 c 0,2.26365 1.597711,4.09293 4.314622,4.09293 3.014801,0 4.309956,-2.12494 4.309956,-4.24292 v -12.11941 h 3.524827 v 12.08941 c 0,4.12467 -3.07628,7.26048 -7.853131,7.26048 -4.108552,0 -7.8361,-2.53802 -7.8361,-7.44047 z"
       id="path35"
       inkscape:connector-curvature="0"
       sodipodi:nodetypes="ccccccccccc" />
    <path
       style="fill:#000000;stroke:none;stroke-width:0.00749963;stroke-linecap:butt;stroke-linejoin:miter;stroke-opacity:1"
       d="m -19.501983,200.80486 v 18.92908 h 10.01951 c 2.8205669,0 5.7934664,-1.68883 5.7934664,-5.40032 0,-2.42277 -1.2575655,-3.724 -2.7088914,-4.60624 0,0 2.0472258,-1.099 2.0472258,-3.75357 0,-3.28857 -2.6484264,-5.16895 -5.8217668,-5.16895 z m 3.509829,2.99986 h 5.639724 c 1.2129062,0 2.4607581,0.54605 2.4607581,2.30209 0,1.64949 -1.0723065,2.40768 -2.5207551,2.40768 h -5.579727 z m 0,7.69462 h 6.2058859 c 1.6576078,0 2.5813976,1.14858 2.5813976,2.72729 0,1.17801 -0.6159418,2.53745 -2.6102232,2.53745 h -6.1770603 z"
       id="path37"
       inkscape:connector-curvature="0" />
    <path
       style="opacity:1;fill:#000000;fill-opacity:1;stroke:none;stroke-width:0.00749963;stroke-linecap:round;stroke-linejoin:round;stroke-opacity:1"
       d="m -1.4428666,219.73394 v -18.92907 h 3.5398267 v 18.92907 z"
       id="path43"
       inkscape:connector-curvature="0" />
    <circle
       style="opacity:1;fill:#000000;fill-opacity:1;stroke:none;stroke-width:0.04321798;stroke-linecap:round;stroke-linejoin:round;stroke-opacity:1"
       id="path47"
       cx="14.510047"
       cy="194.33221"
       r="4.1489267" />
    <circle
       r="4.1489267"
       cy="194.33221"
       cx="25.172937"
       id="circle51"
       style="opacity:1;fill:#000000;fill-opacity:1;stroke:none;stroke-width:0.04321798;stroke-linecap:round;stroke-linejoin:round;stroke-opacity:1" />
    <circle
       r="4.1489267"
       cy="204.95752"
       cx="14.510047"
       id="circle53"
       style="opacity:1;fill:#000000;fill-opacity:1;stroke:none;stroke-width:0.04321798;stroke-linecap:round;stroke-linejoin:round;stroke-opacity:1" />
    <circle
       style="opacity:1;fill:#000000;fill-opacity:1;stroke:none;stroke-width:0.04321798;stroke-linecap:round;stroke-linejoin:round;stroke-opacity:1"
       id="circle55"
       cx="25.172937"
       cy="204.95752"
       r="4.1489267" />
    <circle
       style="opacity:1;fill:#000000;fill-opacity:1;stroke:none;stroke-width:0.04321798;stroke-linecap:round;stroke-linejoin:round;stroke-opacity:1"
       id="circle57"
       cx="14.510047"
       cy="215.58391"
       r="4.1489267" />
    <circle
       r="4.1489267"
       cy="215.58391"
       cx="25.172937"
       id="circle59"
       style="opacity:1;fill:#000000;fill-opacity:1;stroke:none;stroke-width:0.04321798;stroke-linecap:round;stroke-linejoin:round;stroke-opacity:1" />
    <circle
       r="4.1489267"
       cy="204.95752"
       cx="35.851074"
       id="circle61"
       style="opacity:1;fill:#000000;fill-opacity:1;stroke:none;stroke-width:0.04321798;stroke-linecap:round;stroke-linejoin:round;stroke-opacity:1" />
  </g>
</svg>
