<svg width="18" height="18" viewBox="0 0 18 18" fill="none" xmlns="http://www.w3.org/2000/svg">
  <path d="M3.79999 0.666656C2.96898 0.666656 2.172 0.996775 1.58439 1.58439C0.996775 2.172 0.666656 2.96898 0.666656 3.79999V14.2C0.666656 15.031 0.996775 15.828 1.58439 16.4156C2.172 17.0032 2.96898 17.3333 3.79999 17.3333H14.2C14.6115 17.3333 15.0189 17.2523 15.3991 17.0948C15.7792 16.9373 16.1246 16.7065 16.4156 16.4156C16.7065 16.1246 16.9373 15.7792 17.0948 15.3991C17.2523 15.0189 17.3333 14.6115 17.3333 14.2V3.79999C17.3333 3.38851 17.2523 2.98107 17.0948 2.60091C16.9373 2.22076 16.7065 1.87535 16.4156 1.58439C16.1246 1.29343 15.7792 1.06263 15.3991 0.905167C15.0189 0.747703 14.6115 0.666656 14.2 0.666656H3.79999ZM5.55582 2.74999H8.02332L8.03999 2.79582C8.04832 2.82166 8.25166 3.39749 8.49249 4.07666L8.59166 4.35999V4.36832L9.75166 7.64332V7.64416L9.97832 8.28582V8.28249L9.98332 5.52416L9.98666 2.75999H12.4375L12.4425 8.99666C12.4442 11.465 12.4425 13.2017 12.4392 14.215L12.4375 14.4625C12.4358 14.6975 12.4375 15.2475 12.4358 15.2483H12.4308C12.4283 15.25 12.4067 15.2483 12.3933 15.2483C12.38 15.2483 12.3767 15.25 12.3558 15.2483C12.2976 15.244 12.2395 15.2382 12.1817 15.2308C11.5454 15.1535 10.9067 15.0985 10.2667 15.0658C10.1449 15.0605 10.0232 15.053 9.90166 15.0433L9.57416 14.1208L9.45749 13.79V13.7883C9.23249 13.155 9.02416 12.5742 8.22666 10.3133L8.03332 9.76666L8.02666 12.405C8.02332 14.91 8.02416 15.0517 7.99582 15.0517C7.60496 15.0717 7.21438 15.0967 6.82416 15.1267C6.64832 15.1408 6.29416 15.1767 6.03749 15.2042C5.88093 15.2253 5.72358 15.24 5.56582 15.2483C5.56082 15.2442 5.55582 12.4317 5.55582 8.99666V2.74999Z" fill="black"/>
</svg>
