<svg width="20" height="18" viewBox="0 0 20 18" fill="none" xmlns="http://www.w3.org/2000/svg">
<path d="M16.8183 3.50335C16.9906 3.53084 17.1647 3.54477 17.3392 3.54501C17.4349 3.55165 17.5311 3.54321 17.6242 3.52001C17.6988 3.51412 17.7702 3.48697 17.8298 3.44178C17.8895 3.39659 17.9349 3.33524 17.9608 3.26501C17.9828 3.19036 17.9871 3.11161 17.9733 3.03501C17.9681 2.97459 17.9465 2.91673 17.9108 2.86769C17.8751 2.81864 17.8267 2.78026 17.7708 2.75668C17.6962 2.72644 17.6171 2.70843 17.5367 2.70335C17.3912 2.68549 17.2439 2.7167 17.1182 2.79202C16.9924 2.86735 16.8954 2.98248 16.8425 3.11918C16.8004 3.21678 16.7718 3.31967 16.7575 3.42501C16.7525 3.49835 16.7525 3.49835 16.8183 3.50335ZM15.9233 3.17001C16.0018 2.86191 16.1757 2.58649 16.4201 2.3831C16.6645 2.17972 16.9669 2.05876 17.2842 2.03751C17.5804 1.99972 17.8814 2.02877 18.165 2.12251C18.7108 2.30918 19.0058 2.89918 18.8267 3.44751C18.7611 3.65839 18.6146 3.83462 18.4192 3.93751C18.2475 4.02768 18.0613 4.08718 17.8692 4.11335C17.5356 4.16719 17.1953 4.16268 16.8633 4.10001C16.8233 4.09063 16.7826 4.08423 16.7417 4.08085C16.7231 4.26407 16.7742 4.44757 16.8848 4.59486C16.9953 4.74215 17.1572 4.84246 17.3383 4.87585C17.6121 4.92923 17.8937 4.92923 18.1675 4.87585C18.2958 4.84835 18.4192 4.82168 18.5475 4.79085C18.6758 4.76001 18.7292 4.80085 18.7292 4.93251V5.25918C18.7347 5.30734 18.7225 5.35586 18.6949 5.39571C18.6673 5.43556 18.6262 5.46404 18.5792 5.47585C18.4109 5.54179 18.236 5.58928 18.0575 5.61751C17.7227 5.67732 17.3796 5.6745 17.0458 5.60918C16.7726 5.56606 16.5186 5.44201 16.3165 5.25306C16.1145 5.06411 15.9738 4.81893 15.9125 4.54918C15.7846 4.09741 15.7892 3.6184 15.9258 3.16918L15.9233 3.17001ZM16.1875 8.47585C16.468 8.4313 16.7546 8.44234 17.0308 8.50835C17.3396 8.5935 17.6162 8.76846 17.8254 9.01104C18.0346 9.25362 18.167 9.55288 18.2058 9.87085V9.88001H18.1942V9.96335C18.191 9.97522 18.1912 9.98773 18.1948 9.9995C18.1983 10.0113 18.205 10.0218 18.2142 10.03V10.0125L18.22 10.0208V10.5292L18.21 10.5467V10.5383C18.185 10.555 18.1933 10.5775 18.1933 10.605V10.6667C18.1533 11.4167 17.5708 12.025 16.8233 12.0975C16.5459 12.137 16.2635 12.1223 15.9917 12.0542C15.7533 12.002 15.5325 11.8891 15.3505 11.7264C15.1686 11.5638 15.0318 11.3569 14.9533 11.1258C14.7494 10.5876 14.7494 9.99329 14.9533 9.45501C15.1358 8.91335 15.62 8.53001 16.1883 8.47585H16.1875ZM10 2.28835C10 2.25224 10.0044 2.21696 10.0133 2.18251C10.023 2.15775 10.0398 2.13643 10.0616 2.12129C10.0834 2.10615 10.1093 2.09787 10.1358 2.09751H10.6942C10.7298 2.09771 10.7643 2.10991 10.7921 2.13214C10.8199 2.15437 10.8394 2.18533 10.8475 2.22001C10.8708 2.28251 10.8842 2.34251 10.9058 2.40585C10.95 2.40585 10.9775 2.37585 11.0075 2.35835C11.2467 2.19841 11.5143 2.08582 11.7958 2.02668C12.0144 1.98235 12.2397 1.98235 12.4583 2.02668C12.6667 2.07168 12.85 2.19501 12.9708 2.37085L12.9958 2.40251V2.41418C13.1058 2.34835 13.2217 2.27751 13.3417 2.21668C13.6509 2.05682 13.9964 1.98041 14.3442 1.99501C14.4603 1.99112 14.5761 2.01019 14.6849 2.05112C14.7936 2.09206 14.8933 2.15405 14.978 2.23356C15.0628 2.31306 15.131 2.40851 15.1789 2.51444C15.2267 2.62036 15.2531 2.73468 15.2567 2.85085V5.32085C15.2567 5.51918 15.2317 5.54585 15.0317 5.54585H14.4925C14.4575 5.54805 14.4225 5.54805 14.3875 5.54585C14.3612 5.54239 14.3368 5.53067 14.3176 5.5124C14.2984 5.49413 14.2856 5.47024 14.2808 5.44418C14.2738 5.39591 14.271 5.34711 14.2725 5.29835V3.25085C14.2754 3.16855 14.2662 3.08626 14.245 3.00668C14.2267 2.93968 14.188 2.88006 14.1342 2.83614C14.0805 2.79221 14.0143 2.76618 13.945 2.76168C13.6833 2.74551 13.4219 2.79597 13.185 2.90835C13.1683 2.91348 13.1539 2.92428 13.1443 2.93889C13.1348 2.95349 13.1306 2.97099 13.1325 2.98835V5.31168C13.1331 5.35489 13.1303 5.39807 13.1242 5.44085C13.1242 5.49918 13.0758 5.54668 13.0175 5.54668H12.3425C12.1783 5.54668 12.1425 5.50751 12.1425 5.34418V3.25001C12.1442 3.17277 12.1369 3.09559 12.1208 3.02001C12.1058 2.94789 12.0674 2.88276 12.0114 2.83482C11.9555 2.78687 11.8852 2.75881 11.8117 2.75501C11.5454 2.73907 11.2794 2.79066 11.0383 2.90501C11.0206 2.91008 11.0055 2.92189 10.9963 2.93793C10.9871 2.95396 10.9845 2.97295 10.9892 2.99085V5.35168C10.9892 5.51418 10.9525 5.54835 10.79 5.54835H10.2033C10.0467 5.54835 10.0075 5.50418 10.0075 5.35501L10 2.28835ZM12.2583 10.555C12.2385 10.5481 12.2176 10.545 12.1967 10.5458C12.2051 10.637 12.2209 10.7273 12.2442 10.8158C12.3108 11.0967 12.5425 11.3075 12.8275 11.3458C13.1287 11.3972 13.4372 11.3867 13.7342 11.315C13.8306 11.2938 13.9264 11.2702 14.0217 11.2442C14.15 11.2133 14.2075 11.2633 14.2075 11.3858V11.7067C14.2162 11.7576 14.2045 11.8099 14.1748 11.8522C14.1452 11.8945 14.1 11.9234 14.0492 11.9325C13.7449 12.0469 13.4233 12.1081 13.0983 12.1133C12.8753 12.1211 12.6522 12.099 12.435 12.0475C12.1968 11.9952 11.9771 11.8796 11.7989 11.7131C11.6208 11.5465 11.4907 11.335 11.4225 11.1008C11.265 10.6209 11.2592 10.1042 11.4058 9.62085C11.4967 9.28716 11.6972 8.99373 11.975 8.78772C12.2528 8.58171 12.5918 8.4751 12.9375 8.48501C13.1607 8.47602 13.3837 8.50447 13.5975 8.56918C13.9642 8.67168 14.2433 8.96918 14.3208 9.34251C14.353 9.50398 14.353 9.67022 14.3208 9.83168C14.2977 9.95757 14.2453 10.0762 14.1678 10.1782C14.0904 10.2801 13.9901 10.3623 13.875 10.4183C13.6438 10.5339 13.3907 10.5992 13.1325 10.61C12.8383 10.6285 12.5429 10.6097 12.2533 10.5542L12.2583 10.555ZM9.6475 8.72001C9.67 8.68918 9.6575 8.65751 9.6575 8.62668V7.20585C9.6575 7.03751 9.68833 7.00751 9.85583 7.00751H10.4675C10.6017 7.01251 10.64 7.04418 10.64 7.18085V11.8358C10.64 11.9583 10.5992 12.0033 10.4767 12.0033H9.90167C9.86589 12.0036 9.83108 11.9917 9.80294 11.9696C9.77479 11.9475 9.75495 11.9165 9.74667 11.8817C9.73713 11.8286 9.72118 11.7768 9.69917 11.7275C9.65917 11.7342 9.64167 11.765 9.61 11.7833C9.42285 11.9313 9.20156 12.0298 8.96642 12.07C8.73129 12.1102 8.48982 12.0907 8.26417 12.0133C8.09706 11.9593 7.94292 11.8713 7.81142 11.7548C7.67992 11.6384 7.5739 11.496 7.5 11.3367C7.35325 11.0445 7.27731 10.7219 7.27834 10.395C7.25867 10.0476 7.31175 9.69991 7.43417 9.37418C7.55171 9.03171 7.79884 8.74898 8.1225 8.58668C8.5825 8.36751 9.1225 8.40335 9.55 8.67918C9.57848 8.70255 9.61178 8.71934 9.6475 8.72835V8.72001ZM8.98333 5.53918H8.3725C8.35175 5.54179 8.33075 5.54179 8.31 5.53918C8.27891 5.53925 8.24895 5.5275 8.2262 5.5063C8.20345 5.4851 8.18962 5.45604 8.1875 5.42501V2.24418C8.1875 2.13835 8.2325 2.09751 8.3375 2.09418C8.56748 2.08942 8.79753 2.08942 9.0275 2.09418C9.12917 2.09418 9.16 2.12501 9.16917 2.22585V5.28418C9.17071 5.33322 9.16792 5.3823 9.16084 5.43085C9.15805 5.45756 9.14573 5.48237 9.12614 5.50073C9.10655 5.5191 9.081 5.52979 9.05417 5.53085H8.98L8.98333 5.53918ZM8.1125 0.997514C8.11899 0.861917 8.17892 0.734409 8.27918 0.642891C8.37945 0.551373 8.51188 0.503296 8.6475 0.509181H8.70084C8.77097 0.506668 8.84098 0.51683 8.9075 0.539181C9.02221 0.575466 9.12 0.651898 9.18291 0.754455C9.24582 0.857011 9.26964 0.978813 9.25 1.09751C9.24051 1.20848 9.19362 1.31294 9.11702 1.39378C9.04041 1.47462 8.93863 1.52706 8.82834 1.54251C8.73051 1.56016 8.63032 1.56016 8.5325 1.54251C8.4688 1.534 8.4074 1.51302 8.35182 1.48076C8.29623 1.44851 8.24754 1.40562 8.20854 1.35454C8.16953 1.30346 8.14098 1.2452 8.1245 1.18308C8.10802 1.12096 8.10394 1.05621 8.1125 0.992514V0.997514ZM5.53584 5.33085V2.31918C5.53584 2.11585 5.5575 2.09418 5.76084 2.09418H6.18584C6.20866 2.09089 6.23191 2.09214 6.25425 2.09786C6.27659 2.10358 6.29758 2.11367 6.31602 2.12753C6.33445 2.14139 6.34996 2.15876 6.36165 2.17864C6.37335 2.19851 6.381 2.2205 6.38417 2.24335C6.415 2.35335 6.4425 2.46335 6.4675 2.58335C6.49847 2.575 6.5254 2.55577 6.54334 2.52918C6.62364 2.44996 6.70792 2.37486 6.79584 2.30418C7.02403 2.12592 7.31037 2.03889 7.59917 2.06001C7.71417 2.06001 7.75417 2.10001 7.76334 2.21001C7.77167 2.36001 7.76334 2.51585 7.76334 2.66501C7.76676 2.72631 7.76341 2.78779 7.75333 2.84835C7.75312 2.88069 7.74011 2.91164 7.71716 2.93443C7.69421 2.95722 7.66318 2.97001 7.63084 2.97001C7.56977 2.97338 7.50857 2.97338 7.4475 2.97001C7.1568 2.95055 6.86524 2.99229 6.59167 3.09251C6.53 3.11418 6.53 3.15835 6.53 3.20751V5.43918C6.52832 5.46646 6.5164 5.49209 6.49662 5.51094C6.47684 5.5298 6.45066 5.54048 6.42334 5.54085C6.38671 5.54327 6.34996 5.54327 6.31334 5.54085V5.54918H5.73834C5.70586 5.55108 5.67331 5.55108 5.64084 5.54918C5.61367 5.54494 5.58867 5.53187 5.56968 5.51198C5.5507 5.4921 5.53881 5.46651 5.53584 5.43918V5.33085ZM6.28917 8.02085C6.23618 8.02944 6.18216 8.02944 6.12917 8.02085C6.07988 8.01964 6.0308 8.01406 5.9825 8.00418C5.85424 7.97725 5.74167 7.90103 5.66904 7.79193C5.59642 7.68283 5.56953 7.54957 5.59417 7.42085C5.60453 7.30144 5.65837 7.18999 5.74547 7.10765C5.83257 7.02531 5.94687 6.97782 6.06667 6.97418C6.09741 6.97075 6.12843 6.97075 6.15917 6.97418C6.24851 6.96702 6.33822 6.9825 6.42 7.01918C6.59334 7.08418 6.71167 7.24585 6.72083 7.43085C6.73177 7.49838 6.72927 7.56741 6.71348 7.63397C6.69769 7.70054 6.66893 7.76333 6.62883 7.81876C6.58873 7.87419 6.53808 7.92116 6.4798 7.95698C6.42151 7.9928 6.35673 8.01677 6.28917 8.02751V8.02085ZM6.65584 8.73335V11.87C6.65861 11.9023 6.64852 11.9343 6.62775 11.9591C6.60698 11.984 6.57723 11.9996 6.545 12.0025H5.81167C5.77966 12.006 5.74755 11.9968 5.72229 11.9769C5.69703 11.9569 5.68064 11.9278 5.67667 11.8958V11.8742C5.67528 11.8464 5.67528 11.8186 5.67667 11.7908V8.73251C5.67667 8.59585 5.71417 8.55751 5.85167 8.55751H6.4775C6.61417 8.56335 6.65334 8.60251 6.65334 8.73918L6.65584 8.73335ZM5.23 8.77251L4.96584 9.47585L4.07667 11.7875C4.06834 11.8142 4.05417 11.84 4.04584 11.8667C4.03031 11.912 4.00022 11.9508 3.96027 11.9772C3.92032 12.0036 3.87275 12.016 3.825 12.0125H3.24C3.18136 12.0192 3.12225 12.0046 3.07357 11.9712C3.02488 11.9378 2.98988 11.888 2.975 11.8308C2.86417 11.54 2.75 11.2442 2.63917 10.9517C2.37417 10.2583 2.105 9.56335 1.83917 8.86501C1.81377 8.80978 1.79449 8.75194 1.78167 8.69251C1.76834 8.60501 1.79917 8.56085 1.88834 8.56085H2.63917C2.74584 8.56085 2.79334 8.63168 2.82084 8.72418C2.86917 8.89168 2.91834 9.06418 2.97084 9.23251C3.15167 9.84335 3.32917 10.465 3.50917 11.08H3.5175L3.5975 10.8233L4.20834 8.77335L4.23417 8.69418C4.24632 8.65718 4.27025 8.62518 4.3023 8.60306C4.33435 8.58094 4.37277 8.56992 4.41167 8.57168H5.08834C5.255 8.56918 5.29084 8.61668 5.235 8.77585L5.23 8.77251ZM1.48834 2.18335C1.52274 2.14919 1.56452 2.12339 1.61046 2.10793C1.65641 2.09247 1.70529 2.08777 1.75334 2.09418H2.16C2.2057 2.08849 2.2518 2.10105 2.28831 2.12913C2.32481 2.15721 2.34878 2.19855 2.355 2.24418C2.36222 2.28862 2.3725 2.33307 2.38584 2.37751C2.38678 2.38118 2.38895 2.38442 2.39197 2.38669C2.395 2.38896 2.39872 2.39013 2.4025 2.39001C2.43664 2.37319 2.46764 2.35064 2.49417 2.32335C2.67808 2.17791 2.89245 2.07586 3.12128 2.02478C3.35012 1.9737 3.58753 1.97492 3.81584 2.02835C4.21584 2.12418 4.54417 2.40668 4.7 2.78668C4.79333 2.99737 4.85106 3.22209 4.87084 3.45168H4.86417C4.90667 3.82168 4.87334 4.19585 4.76584 4.55251C4.68248 4.83404 4.52404 5.08756 4.3075 5.28585C4.02417 5.54085 3.645 5.65918 3.2675 5.60918C2.98808 5.58109 2.72216 5.47513 2.5 5.30335C2.4675 5.33085 2.48167 5.36501 2.48167 5.39751V6.65251C2.48167 6.92668 2.48167 6.92668 2.20334 6.92668H1.72667C1.68003 6.93513 1.63194 6.92968 1.58838 6.91101C1.54482 6.89234 1.50771 6.86128 1.48167 6.82168L1.48834 2.18335ZM17.63 14.8708C17.5942 14.9367 17.5441 14.9937 17.4833 15.0375C16.9745 15.4378 16.4268 15.7859 15.8483 16.0767C14.7563 16.6292 13.5914 17.0237 12.3883 17.2483C11.6972 17.3722 10.9983 17.4474 10.2967 17.4733V17.4917H9.75583V17.4767C9.51167 17.465 9.27417 17.455 9.0325 17.4375C8.38825 17.388 7.74865 17.29 7.11917 17.1442C4.98458 16.6478 3.01062 15.6186 1.38167 14.1525C1.2275 14.0158 1.08167 13.875 0.931669 13.7333C0.894854 13.6996 0.86609 13.658 0.847502 13.6117C0.830308 13.5725 0.829238 13.5282 0.844526 13.4882C0.859813 13.4483 0.890226 13.416 0.929169 13.3983C0.968521 13.3828 1.01232 13.3828 1.05167 13.3983C1.09143 13.4145 1.12987 13.4337 1.16667 13.4558C2.75229 14.4374 4.48724 15.154 6.30334 15.5775C6.91173 15.7194 7.52697 15.8301 8.14667 15.9092C9.03458 16.0201 9.92986 16.0608 10.8242 16.0308C11.3048 16.0147 11.7843 15.9741 12.2608 15.9092C13.3753 15.7661 14.4735 15.5161 15.54 15.1625C16.0997 14.9777 16.6486 14.7618 17.1842 14.5158C17.2648 14.471 17.3595 14.4582 17.4492 14.48C17.5195 14.4977 17.58 14.5425 17.6175 14.6047C17.6549 14.6668 17.6663 14.7412 17.6492 14.8117L17.6308 14.8667L17.63 14.8708ZM18.4867 16.1108C18.3452 16.3434 18.1728 16.5556 17.9742 16.7417C17.9353 16.783 17.8865 16.8137 17.8325 16.8308C17.8163 16.8375 17.7986 16.8398 17.7812 16.8377C17.7639 16.8355 17.7473 16.8289 17.7332 16.8186C17.7191 16.8082 17.7078 16.7944 17.7006 16.7785C17.6933 16.7625 17.6902 16.745 17.6917 16.7275C17.6959 16.6813 17.7066 16.6358 17.7233 16.5925C17.8775 16.1792 18.0283 15.7675 18.1483 15.3392C18.2177 15.105 18.2678 14.8656 18.2983 14.6233C18.3066 14.5352 18.3066 14.4465 18.2983 14.3583C18.2974 14.2853 18.2731 14.2146 18.229 14.1564C18.1849 14.0982 18.1234 14.0557 18.0533 14.035C17.916 13.9904 17.7734 13.9637 17.6292 13.9558C17.2231 13.9383 16.8163 13.9561 16.4133 14.0092L15.8792 14.0758C15.8208 14.0758 15.7692 14.0758 15.7375 14.0217C15.7244 13.9968 15.7186 13.9688 15.7207 13.9408C15.7227 13.9129 15.7326 13.886 15.7492 13.8633C15.7862 13.8143 15.832 13.7725 15.8842 13.74C16.2115 13.5157 16.5791 13.3567 16.9667 13.2717C17.2679 13.2118 17.5738 13.1781 17.8808 13.1708C18.1697 13.172 18.4553 13.2056 18.7375 13.2717C18.8168 13.2924 18.8938 13.3209 18.9675 13.3567C19.0683 13.3983 19.1392 13.4917 19.15 13.6008C19.1683 13.7264 19.1722 13.8536 19.1617 13.98C19.1046 14.7306 18.8747 15.4579 18.49 16.105L18.4867 16.1108ZM16.3617 11.3442C16.4444 11.3596 16.5289 11.3624 16.6125 11.3525C16.6961 11.3445 16.777 11.3185 16.8496 11.2764C16.9222 11.2343 16.9849 11.1769 17.0333 11.1083C17.0886 11.0304 17.13 10.9436 17.1558 10.8517L17.1483 10.8633C17.2028 10.6803 17.2237 10.4889 17.21 10.2983C17.214 10.217 17.214 10.1355 17.21 10.0542C17.202 9.88114 17.1604 9.71131 17.0875 9.55418C17.049 9.47451 16.9927 9.40479 16.9229 9.35044C16.8531 9.29609 16.7717 9.25859 16.685 9.24085C16.6022 9.22391 16.5171 9.22109 16.4333 9.23251C16.3419 9.23935 16.2533 9.26767 16.1748 9.31516C16.0963 9.36265 16.0302 9.42798 15.9817 9.50585C15.9256 9.59595 15.8843 9.69441 15.8592 9.79751C15.8056 10.0531 15.7938 10.3157 15.8242 10.575C15.8379 10.7271 15.8795 10.8754 15.9467 11.0125C15.9835 11.0972 16.0405 11.1717 16.1127 11.2293C16.1849 11.287 16.2701 11.3261 16.3608 11.3433L16.3617 11.3442ZM13.4258 9.71085C13.4475 9.65428 13.4559 9.59348 13.4503 9.53316C13.4447 9.47284 13.4252 9.41463 13.3935 9.36304C13.3617 9.31145 13.3185 9.26787 13.2672 9.2357C13.2158 9.20352 13.1578 9.18361 13.0975 9.17751C13.0758 9.17751 13.0583 9.16918 13.0367 9.16918C12.9163 9.14788 12.7924 9.1601 12.6785 9.20448C12.5646 9.24887 12.4651 9.32372 12.3908 9.42085C12.2945 9.56502 12.2342 9.7302 12.215 9.90251C12.2025 9.94168 12.2233 9.96001 12.2633 9.96335C12.4405 9.98955 12.6192 10.0043 12.7983 10.0075C12.89 10.0125 12.9811 10.0053 13.0717 9.98585C13.1519 9.98237 13.2291 9.95404 13.2926 9.90478C13.356 9.85551 13.4026 9.78774 13.4258 9.71085ZM8.44167 9.49835C8.40385 9.56686 8.3742 9.63958 8.35334 9.71501C8.28375 9.98618 8.26538 10.2679 8.29917 10.5458C8.31182 10.7011 8.35337 10.8526 8.42167 10.9925C8.46761 11.0816 8.53486 11.158 8.61744 11.2148C8.70002 11.2717 8.79536 11.3072 8.895 11.3183C9.13433 11.3531 9.3784 11.3067 9.58834 11.1867C9.61129 11.1759 9.63044 11.1585 9.64324 11.1366C9.65604 11.1147 9.66189 11.0895 9.66 11.0642V10.2592H9.66584C9.66584 9.99001 9.6575 9.72501 9.66584 9.45251C9.66873 9.42505 9.66246 9.3974 9.64798 9.37388C9.63351 9.35037 9.61166 9.3323 9.58584 9.32251C9.37362 9.22249 9.13877 9.18024 8.905 9.20001C8.80877 9.20621 8.71571 9.23686 8.63463 9.28907C8.55355 9.34127 8.48713 9.4133 8.44167 9.49835ZM3.2125 4.87585C3.36246 4.87411 3.5068 4.8185 3.61917 4.71918C3.72202 4.62519 3.79284 4.50133 3.82167 4.36501C3.89178 4.09252 3.91015 3.80929 3.87584 3.53001C3.86674 3.37431 3.82858 3.22168 3.76334 3.08001C3.72615 2.99548 3.66796 2.92185 3.5943 2.86614C3.52065 2.81042 3.43397 2.77446 3.3425 2.76168C3.0835 2.71539 2.81647 2.7555 2.5825 2.87585C2.55491 2.88583 2.53139 2.90463 2.51557 2.92934C2.49975 2.95404 2.49252 2.98328 2.495 3.01251V4.61001C2.49339 4.63567 2.49973 4.66119 2.51315 4.68311C2.52657 4.70503 2.54642 4.72228 2.57 4.73251C2.76724 4.83744 2.98942 4.88643 3.2125 4.87418" fill="black"/>
</svg>
