<?xml version="1.0" encoding="utf-8"?>
<!-- Generator: Adobe Illustrator 27.0.1, SVG Export Plug-In . SVG Version: 6.00 Build 0)  -->
<svg version="1.1" id="Слой_1" xmlns="http://www.w3.org/2000/svg" xmlns:xlink="http://www.w3.org/1999/xlink" x="0px" y="0px"
	 width="500px" height="154.9px" viewBox="0 0 500 154.9" style="enable-background:new 0 0 500 154.9;" xml:space="preserve">
<style type="text/css">
	.st0{fill:#CB2029;}
	.st1{clip-path:url(#SVGID_00000182524385357629118850000014146562378744997809_);}
	.st2{fill:#E63940;}
	.st3{opacity:0.6;}
	.st4{fill:#8D0A2C;}
	.st5{opacity:0.9;fill:url(#SVGID_00000010308786413355357070000007049687923420221343_);enable-background:new    ;}
	.st6{clip-path:url(#SVGID_00000013875671150558913090000000431196261259370115_);}
	.st7{opacity:0.6;fill:url(#SVGID_00000000908598191797280480000017109229306878665139_);enable-background:new    ;}
	.st8{opacity:0.9;fill:url(#SVGID_00000103264952992592674370000001059219229929766016_);enable-background:new    ;}
	.st9{opacity:0.9;fill:url(#SVGID_00000173853126647276377220000014539167314345466014_);enable-background:new    ;}
	.st10{opacity:0.9;fill:url(#SVGID_00000103235166016455585650000012669323656947256215_);enable-background:new    ;}
	.st11{opacity:0.8;fill:url(#SVGID_00000030451419492890020030000000426493761001690269_);enable-background:new    ;}
	.st12{opacity:0.7;}
	.st13{fill:url(#SVGID_00000049909764707206865990000015666870109129571259_);}
	.st14{fill:url(#SVGID_00000038376092507138364870000009169617079232169098_);}
	.st15{fill:url(#SVGID_00000031900935398144281800000013176106375640363398_);}
	.st16{fill:url(#SVGID_00000058581964961005802390000009802249427792922249_);}
	.st17{opacity:0.9;}
	.st18{fill:url(#SVGID_00000049911283929461237500000007424692368750371253_);}
</style>
<g>
	<g id="artwork">
		<g>
			<g>
				<g>
					<path class="st0" d="M202.2,51.9c-6-0.3-12,1.3-17,4.6c-0.4,0.2-0.6,0.8-0.4,1.2c0,0,0,0.1,0.1,0.1l4.3,7.5
						c0.2,0.4,0.6,0.5,1,0.4c0.1,0,0.2-0.1,0.2-0.2c3-2,6.6-3.1,10.2-2.9c7.3,0,9.4,1.9,9.4,6.2v1.7c0,0.4-0.2,0.6-0.6,0.6h-8.1
						c-11.4,0-19,4.6-19,14.8c0,9.7,7.1,14,15.2,14c6.3,0,10.2-1.9,12.6-5h0.1v3c0,0.5,0.4,0.9,0.9,0.9c0,0,0.1,0,0.1,0h10.5
						c0.5,0,0.9-0.4,0.9-0.9c0,0,0-0.1,0-0.1V68.5C222.6,57,217.2,51.9,202.2,51.9z M210,83.5c0,4.3-2.8,6.3-8.5,6.3
						c-4.3,0-6.6-1.6-6.6-4.8c0-3.6,2.6-5.2,8.2-5.2h6.4c0.4,0,0.6,0.2,0.6,0.6L210,83.5z"/>
					<path class="st0" d="M257.2,51.9c-4.6-0.3-9,1.7-11.8,5.2l0,0v-3.2c0-0.5-0.4-0.9-0.9-0.9c0,0-0.1,0-0.1,0h-11.4
						c-0.5,0-0.9,0.4-0.9,0.9c0,0,0,0.1,0,0.1v43.9c0,0.5,0.4,0.9,0.9,0.9c0,0,0.1,0,0.1,0h11.4c0.5,0,0.9-0.4,0.9-0.9
						c0,0,0-0.1,0-0.1V71.5c0-5,2.7-8.3,7.2-8.3c4.5,0,7.1,3.3,7.1,8.3v26.3c0,0.5,0.3,0.9,0.8,0.9c0,0,0.1,0,0.1,0H272
						c0.5,0,0.9-0.3,0.9-0.8c0,0,0-0.1,0-0.1V69C272.8,58.9,267.4,51.9,257.2,51.9z"/>
					<path class="st0" d="M321.2,53h-11.7c-0.5,0-1,0.4-1.1,0.9l-8.5,26.5h-0.2l-9.2-26.5c-0.1-0.5-0.6-0.9-1.1-0.9h-12.2
						c-0.4-0.1-0.7,0.2-0.8,0.6c0,0.1,0,0.3,0,0.4l17,42.6l-1.2,3.4c-0.5,3-3.3,5-6.3,4.7H284c-0.5,0-0.9,0.3-0.9,0.8
						c0,0,0,0.1,0,0.1v9.3c0,0.5,0.4,0.9,0.9,0.9c0,0,0.1,0,0.1,0h3.2c8.2,0,12.3-3,16.2-13.2L322,53.9
						C322.2,53.3,321.9,53,321.2,53z"/>
					<path class="st0" d="M350.1,53h-5.8c-0.3,0-0.5-0.2-0.6-0.4c0,0,0-0.1,0-0.1V40.1c0-0.5-0.4-0.9-0.9-0.9c0,0-0.1,0-0.1,0h-11.3
						c-0.5,0-0.9,0.4-0.9,0.9c0,0,0,0.1,0,0.1v12.3c0,0.3-0.1,0.5-0.4,0.6c-0.1,0-0.1,0-0.2,0h-2.8c-0.5,0-0.9,0.4-0.9,0.8
						c0,0,0,0.1,0,0.1v7.9c0,0.5,0.3,0.9,0.8,0.9c0,0,0.1,0,0.1,0h2.8c0.4,0,0.6,0.2,0.6,0.6v20.8c0,10.5,4,15.2,14.6,15.2h5
						c0.5,0,0.9-0.3,0.9-0.8c0,0,0-0.1,0-0.1V89c0-0.5-0.3-0.9-0.8-0.9c0,0-0.1,0-0.1,0h-2.3c-3,0-4.2-1.1-4.2-4.6V63.3
						c0-0.3,0.1-0.5,0.4-0.6c0,0,0.1,0,0.1,0h5.8c0.5,0,0.9-0.3,0.9-0.8c0,0,0-0.1,0-0.1v-7.9c0-0.5-0.3-0.9-0.8-0.9
						C350.2,53,350.2,53,350.1,53z"/>
					<path class="st0" d="M359.8,39.1h11.3c0.5,0,0.9,0.4,0.9,0.9v9.4c0,0.5-0.4,0.9-0.9,0.9h-11.3c-0.5,0-0.9-0.4-0.9-0.9v-9.4
						C358.9,39.6,359.3,39.1,359.8,39.1z"/>
					<path class="st0" d="M359.8,53h11.3c0.5,0,0.9,0.4,0.9,0.9v43.9c0,0.5-0.4,0.9-0.9,0.9h-11.3c-0.5,0-0.9-0.4-0.9-0.9V53.9
						C358.9,53.4,359.3,53,359.8,53z"/>
					<path class="st0" d="M433.7,51.9c-5.4-0.2-10.7,1.9-14.4,5.8h-0.1c-5.7-6.8-15.7-7.7-22.6-2.1c-0.6,0.5-1.1,1-1.6,1.5l0,0v-3.2
						c0-0.5-0.3-0.9-0.8-0.9c0,0-0.1,0-0.1,0h-11.3c-0.5,0-0.9,0.3-0.9,0.8c0,0,0,0.1,0,0.1v43.9c0,0.5,0.3,0.9,0.8,0.9
						c0,0,0.1,0,0.1,0h11.3c0.5,0,0.9-0.3,0.9-0.8c0,0,0-0.1,0-0.1V71.5c0-5,2.7-8.3,7.2-8.3c4.6,0,7.1,3.3,7.1,8.3v26.3
						c0,0.5,0.4,0.9,0.9,0.9c0,0,0.1,0,0.1,0h11.4c0.5,0,0.9-0.4,0.9-0.9c0,0,0-0.1,0-0.1V71.5c0-5,2.6-8.3,7.1-8.3
						c4.5,0,7.2,3.3,7.2,8.3v26.3c0,0.5,0.3,0.9,0.8,0.9c0,0,0.1,0,0.1,0h11.3c0.5,0,0.9-0.4,0.9-0.9c0,0,0-0.1,0-0.1V69
						C450.1,58.8,444.5,51.9,433.7,51.9z"/>
					<path class="st0" d="M471.2,79.8H499c0.5,0.1,1-0.3,1-0.8c0-0.1,0-0.1,0-0.2c0-7.7-0.6-11.1-1.5-14.1
						c-2.7-8-9.7-12.9-19.8-12.9c-9.7,0-17,4.7-19.7,13c-1.1,3.6-1.6,7.3-1.5,11c-0.1,3.7,0.5,7.4,1.6,10.9
						c2.7,8.2,9.8,13.1,20.3,13.1c7.3,0.2,14.4-2.6,19.5-7.7c0.4-0.3,0.4-0.9,0.1-1.2c0,0-0.1-0.1-0.1-0.1l-6.3-5.8
						c-0.4-0.5-0.9-0.4-1.3,0c-2.8,2.7-6.6,4.2-10.5,4.1c-4.7,0-8.2-2.1-9.5-6c-0.3-0.8-0.5-1.7-0.6-2.6
						C470.7,80.1,470.9,79.9,471.2,79.8C471.2,79.8,471.2,79.8,471.2,79.8z M471.2,67.1c1.8-4.2,6.7-6.2,11-4.3
						c1.9,0.8,3.5,2.4,4.3,4.3c0.3,1.1,0.5,2.3,0.5,3.4c0,0.3-0.1,0.5-0.4,0.6c0,0-0.1,0-0.1,0h-15.2c-0.3,0-0.5-0.2-0.6-0.4
						c0,0,0-0.1,0-0.1C470.7,69.3,470.8,68.2,471.2,67.1L471.2,67.1z"/>
				</g>
				<g>
					<defs>
						<path id="SVGID_1_" d="M222.6,68.5v29.3c0,0.5-0.4,0.9-0.9,0.9c0,0-0.1,0-0.1,0h-10.5c-0.5,0-0.9-0.4-0.9-0.9c0,0,0-0.1,0-0.1
							v-3h-0.1c-2.4,3-6.3,4.9-12.6,4.9c-8.1,0-15.2-4.3-15.2-14c0-10.1,7.7-14.8,19-14.8h8.1c0.4,0,0.6-0.2,0.6-0.6v-1.6
							c0-4.3-2.1-6.2-9.4-6.2c-3.6-0.1-7.2,0.9-10.2,2.9c-0.3,0.3-0.8,0.3-1.1,0c-0.1-0.1-0.1-0.1-0.2-0.2l-4.3-7.5
							c-0.3-0.4-0.2-1,0.2-1.2c0,0,0.1,0,0.1-0.1c5.1-3.2,11-4.8,17-4.6C217.2,51.9,222.6,57,222.6,68.5z M210,80.4
							c0-0.4-0.2-0.6-0.6-0.6H203c-5.6,0-8.2,1.6-8.2,5.2c0,3.2,2.3,4.8,6.6,4.8c5.7,0,8.5-2.1,8.5-6.3L210,80.4z M257.2,51.9
							c-4.6-0.3-9,1.7-11.8,5.2l0,0v-3.2c0-0.5-0.4-0.9-0.9-0.9c0,0-0.1,0-0.1,0h-11.4c-0.5,0-0.9,0.4-0.9,0.9c0,0,0,0.1,0,0.1v43.9
							c0,0.5,0.4,0.9,0.9,0.9c0,0,0.1,0,0.1,0h11.4c0.5,0,0.9-0.4,0.9-0.9c0,0,0-0.1,0-0.1V71.5c0-5,2.7-8.3,7.2-8.3
							c4.5,0,7.1,3.3,7.1,8.3v26.3c0,0.5,0.3,0.9,0.8,0.9c0,0,0.1,0,0.1,0H272c0.5,0,0.9-0.3,0.9-0.8c0,0,0-0.1,0-0.1V69
							C272.8,58.9,267.4,51.9,257.2,51.9z M321.1,53h-11.7c-0.5,0-1,0.4-1.1,0.9l-8.5,26.5h-0.2l-9.2-26.5c-0.1-0.5-0.6-0.9-1.1-0.9
							h-12.2c-0.4-0.1-0.7,0.2-0.8,0.6c0,0.1,0,0.3,0,0.4l17,42.6l-1.2,3.4c-0.5,3-3.3,5-6.3,4.7H284c-0.5,0-0.9,0.3-0.9,0.8
							c0,0,0,0.1,0,0.1v9.3c0,0.5,0.4,0.9,0.9,0.9c0,0,0.1,0,0.1,0h3.2c8.2,0,12.3-3,16.2-13.2L322,53.9
							C322.2,53.3,321.9,53,321.1,53L321.1,53z M350.1,53h-5.8c-0.3,0-0.5-0.2-0.6-0.4c0,0,0-0.1,0-0.1V40.1c0-0.5-0.4-0.9-0.9-0.9
							c0,0-0.1,0-0.1,0h-11.3c-0.5,0-0.9,0.4-0.9,0.9c0,0,0,0.1,0,0.1v12.3c0,0.3-0.1,0.5-0.4,0.6c-0.1,0-0.1,0-0.2,0h-2.8
							c-0.5,0-0.9,0.4-0.9,0.8c0,0,0,0.1,0,0.1v7.9c0,0.5,0.3,0.9,0.8,0.9c0,0,0.1,0,0.1,0h2.8c0.4,0,0.6,0.2,0.6,0.6v20.8
							c0,10.5,4,15.2,14.6,15.2h5c0.5,0,0.9-0.3,0.9-0.8c0,0,0-0.1,0-0.1V89c0-0.5-0.3-0.9-0.8-0.9c0,0-0.1,0-0.1,0h-2.3
							c-3,0-4.2-1.1-4.2-4.6V63.3c0-0.3,0.1-0.5,0.4-0.6c0,0,0.1,0,0.1,0h5.8c0.5,0,0.9-0.3,0.9-0.8c0,0,0-0.1,0-0.1v-7.9
							c0-0.5-0.3-0.9-0.8-0.9C350.2,53,350.1,53,350.1,53L350.1,53z M371.1,39.1h-11.4c-0.5,0-0.9,0.4-0.9,0.9c0,0,0,0.1,0,0.1v9.3
							c0,0.5,0.4,0.9,0.9,0.9c0,0,0.1,0,0.1,0h11.4c0.5,0,0.9-0.4,0.9-0.9c0,0,0-0.1,0-0.1v-9.3C372.1,39.6,371.7,39.2,371.1,39.1
							C371.2,39.1,371.2,39.1,371.1,39.1L371.1,39.1z M371.1,53h-11.4c-0.5,0-0.9,0.4-0.9,0.9c0,0,0,0.1,0,0.1v43.9
							c0,0.5,0.4,0.9,0.9,0.9c0,0,0.1,0,0.1,0h11.4c0.5,0,0.9-0.4,0.9-0.9c0,0,0-0.1,0-0.1V53.9C372.1,53.4,371.7,53,371.1,53
							C371.2,53,371.2,53,371.1,53L371.1,53z M433.6,51.9c-5.4-0.2-10.7,1.9-14.4,5.8h-0.1c-5.7-6.8-15.8-7.7-22.6-2
							c-0.5,0.4-1,0.9-1.5,1.4l0,0v-3.2c0-0.5-0.3-0.9-0.8-0.9c0,0-0.1,0-0.1,0h-11.3c-0.5,0-0.9,0.3-0.9,0.8c0,0,0,0.1,0,0.1v43.9
							c0,0.5,0.3,0.9,0.8,0.9c0,0,0.1,0,0.1,0h11.3c0.5,0,0.9-0.3,0.9-0.8c0,0,0-0.1,0-0.1V71.5c0-5,2.7-8.3,7.2-8.3
							c4.6,0,7.1,3.3,7.1,8.3v26.3c0,0.5,0.4,0.9,0.9,0.9c0,0,0.1,0,0.1,0h11.4c0.5,0,0.9-0.4,0.9-0.9c0,0,0-0.1,0-0.1V71.5
							c0-5,2.6-8.3,7.1-8.3c4.5,0,7.2,3.3,7.2,8.3v26.3c0,0.5,0.3,0.9,0.8,0.9c0,0,0.1,0,0.1,0h11.3c0.5,0,0.9-0.4,0.9-0.9
							c0,0,0-0.1,0-0.1V69C450.1,58.8,444.5,51.9,433.6,51.9L433.6,51.9z M470.8,80.4c0.1,0.9,0.3,1.7,0.6,2.6c1.2,3.9,4.7,6,9.5,6
							c3.9,0.1,7.7-1.4,10.5-4.1c0.5-0.4,0.9-0.5,1.3,0l6.3,5.8c0.4,0.3,0.4,0.9,0.1,1.2c0,0-0.1,0.1-0.1,0.1
							c-5.1,5.2-12.2,8-19.5,7.7c-10.4,0-17.6-4.8-20.3-13.1c-1.1-3.5-1.7-7.2-1.6-10.9c-0.1-3.7,0.4-7.4,1.5-11
							c2.7-8.2,9.9-13,19.7-13c10.1,0,17.1,4.8,19.8,12.9c0.9,3,1.5,6.4,1.5,14.1c0,0.5-0.4,0.9-0.9,1c-0.1,0-0.1,0-0.2,0h-27.7
							C470.9,79.8,470.7,80.1,470.8,80.4C470.8,80.4,470.8,80.4,470.8,80.4z M470.8,70.4c0,0.3,0.1,0.5,0.4,0.6c0,0,0.1,0,0.1,0
							h15.2c0.3,0,0.5-0.2,0.6-0.4c0,0,0-0.1,0-0.1c0-1.2-0.1-2.3-0.5-3.4c-1.8-4.2-6.7-6.2-11-4.3c-1.9,0.8-3.5,2.4-4.3,4.3
							C470.9,68.1,470.7,69.3,470.8,70.4L470.8,70.4z"/>
					</defs>
					<clipPath id="SVGID_00000033363548053531711250000013058269315291809698_">
						<use xlink:href="#SVGID_1_"  style="overflow:visible;"/>
					</clipPath>
					<g style="clip-path:url(#SVGID_00000033363548053531711250000013058269315291809698_);">
						<g>
							<g>
								<circle class="st2" cx="286.3" cy="32.6" r="57.5"/>
							</g>
						</g>
						<g class="st3">
							<g>
								
									<ellipse transform="matrix(0.331 -0.9436 0.9436 0.331 201.4656 481.8857)" class="st2" cx="440.6" cy="98.9" rx="38.2" ry="38.2"/>
							</g>
						</g>
					</g>
				</g>
			</g>
			<g>
				<path class="st4" d="M144,117.3l1.2-2.1l1.1-2.1c0.6-1.2,1.1-2.3,1.7-3.5c0.5-1.2,1.2-2.7,1.7-4c3.3-8.5,5-17.5,5.2-26.6v-0.6
					l0,0c0-0.2,0-0.5,0-0.6v-0.2c0-1.3,0-2.8-0.2-4.3c0-0.6,0-1.2-0.1-1.9c0-0.3,0-0.6,0-0.9c-0.2-2.5-0.6-5.1-0.9-7.3
					c-0.2-0.9-0.3-1.7-0.5-2.6c0-0.2-0.1-0.4-0.2-0.6H84.2v20.6l0,0c0.1,0,0.3,0,0.4,0h0.1l0,0c4.9-2.4,10.3-3.9,15.7-4.2h0.5
					c7.1,0,17.4,4.5,17.8,4.7c4.3,2,8.7,3.6,13.2,4.8c2.3,0.6,4.6,0.8,7,0.8h0.8l0,0c0.8,0,1.7-0.2,2.4-0.3h0.4h0.4l0.4-0.1l0.5-0.1
					l0.6-0.2h0.3c0.1,0,0.3,0,0.4,0c0.5,0,1,0.3,1.2,0.8c0.3,0.9-0.3,1.5-1.5,2.4l0,0l0,0c-0.4,0.3-0.8,0.5-1.1,0.7
					c-0.4,0.2-0.8,0.4-1.2,0.6c-0.4,0.2-1.1,0.4-1.6,0.6c-2.8,0.9-5.6,1.3-8.5,1.3c-1.3,0-2.3,0-2.8-0.1h-0.4
					c-4.2-0.7-8.3-1.9-12.2-3.5c-2.2-0.9-4.5-1.7-6.6-2.4l-3.1-1L106,85l-1.1-0.7l-1.2-0.3l-1.5-0.4l-0.5-0.1l-0.9-0.3h-0.3
					c-1.5-0.3-3-0.5-4.6-0.5c-4.4,0-8.6,1.5-11.8,4.4l0,0v67.9l0,0c9.2-0.8,18.2-3.3,26.6-7.3l1.6-0.8c2.7-1.3,5.3-2.8,7.8-4.5
					l1.1-0.8l1.7-1.2l0.9-0.6c2.7-2,5.2-4.2,7.6-6.5l1.2-1.2c3.3-3.3,6.2-7,8.8-10.8l1-1.5C143,118.9,143.5,118.1,144,117.3z"/>
				<path class="st4" d="M0,79.1c0,1.9,0.2,4,0.3,6l0,0l14.9-13.7l0.2-0.1c0.3-0.2,0.6-0.3,0.9-0.4h0.3h0.2c0.3,0,0.6,0.1,0.8,0.3
					c0.4,0.5,0.6,1.1,0.4,1.7c0,0,0,0.1,0,0.1l-0.1,0.3v0.2c-0.2,0.4-0.4,0.8-0.7,1.1C9.2,85,7.5,89,7.5,89l0,0
					c-1,1.9-1.5,4-1.5,6.1v0.3c0,0,0,0.2,0,0.3c0.1,1.2,0.4,2.3,1.1,3.3c0.4,0.5,0.8,1,1.3,1.5l0.4,0.3c0.5,0.4,1.1,0.7,1.8,0.9
					c1.1,0.4,2.3,0.6,3.5,0.7c0.3,0,0.6,0,0.9,0h0.8h1l1-0.1H18l0,0h0.4h0.2c2.5-0.7,4.7-1.9,6.7-3.6l0.3-0.2l0.5-0.4l0.4-0.3
					c0.2-0.2,0.4-0.3,0.6-0.5l0.3-0.3l0.8-0.8c0.5-0.5,0.9-1,1.5-1.7l0.2-0.3c1-1.3,2.1-2.8,3.2-4.4l0.3-0.4l1.4-2.1l0.2-0.3
					l0.4-0.6l0.3-0.5l0.2-0.3L36,85c0.7-1.1,1.2-1.9,1.6-2.6l0.1-0.2c0.3-0.5,0.4-0.8,0.4-0.8c1.4-2.4,19.1-32.9,19.4-33.3
					c10.3-15.8,20.2-23,21-23.6l0.5-0.4l0.2-0.2c0.5-0.4,1.1-0.9,1.6-1.3l0.3-0.2c0.9-0.7,1.8-1.4,2.7-1.9l0.3-0.3
					c0.9-0.6,1.7-1.2,2.6-1.7c0.1-0.1,0.3-0.2,0.4-0.3c0.2-0.2,0.5-0.3,0.7-0.4l0.4-0.3l0.7-0.4l0.5-0.3l0.6-0.4l0.5-0.3l1.6-0.9
					l0.5-0.3l0.5-0.3l1-0.5l0.5-0.2l1-0.5l1.3-0.6l2.1-1c1.1-0.5,2.1-0.8,2.9-1.1l0.3-0.1l0.4-0.2l0.5-0.2l1.4-0.4
					c2.3-0.5,4.6-0.8,7-0.8h1.7h0.8h0.4l0,0c-9.1-5-19.2-8.1-29.6-9.1L82.4,0H81l0,0c-1.3,0-2.6,0-3.6,0C45.5,0.1,17,19.6,5.4,49.2
					c-0.5,1.3-1,2.7-1.4,4c-0.4,1.1-0.7,2.1-1,3.2l-0.6,2.2c-0.3,1-0.5,2-0.7,3.1c-0.2,1-0.3,1.5-0.4,2.2c-0.1,0.8-0.2,1.3-0.3,1.9
					C0.3,69.8,0,73.8,0,77.7l0,0V79.1z"/>
				
					<radialGradient id="SVGID_00000104700327264369355660000007146483540928470412_" cx="1418.8016" cy="-610.0208" r="205.4216" gradientTransform="matrix(0.32 0 0 -0.32 -422.5402 -214.2507)" gradientUnits="userSpaceOnUse">
					<stop  offset="0" style="stop-color:#ED2634"/>
					<stop  offset="0.99" style="stop-color:#ED2634;stop-opacity:0"/>
				</radialGradient>
				
					<path style="opacity:0.9;fill:url(#SVGID_00000104700327264369355660000007146483540928470412_);enable-background:new    ;" d="
					M0,79.1c0,1.9,0.2,4,0.3,6l0,0l14.9-13.7l0.2-0.1c0.3-0.2,0.6-0.3,0.9-0.4h0.3h0.2c0.3,0,0.6,0.1,0.8,0.3
					c0.4,0.5,0.6,1.1,0.4,1.7c0,0,0,0.1,0,0.1l-0.1,0.3v0.2c-0.2,0.4-0.4,0.8-0.7,1.1C9.2,85,7.5,89,7.5,89l0,0
					c-1,1.9-1.5,4-1.5,6.1v0.3c0,0,0,0.2,0,0.3c0.1,1.2,0.4,2.3,1.1,3.3c0.4,0.5,0.8,1,1.3,1.5l0.4,0.3c0.5,0.4,1.1,0.7,1.8,0.9
					c1.1,0.4,2.3,0.6,3.5,0.7c0.3,0,0.6,0,0.9,0h0.8h1l1-0.1H18l0,0h0.4h0.2c2.5-0.7,4.7-1.9,6.7-3.6l0.3-0.2l0.5-0.4l0.4-0.3
					c0.2-0.2,0.4-0.3,0.6-0.5l0.3-0.3l0.8-0.8c0.5-0.5,0.9-1,1.5-1.7l0.2-0.3c1-1.3,2.1-2.8,3.2-4.4l0.3-0.4l1.4-2.1l0.2-0.3
					l0.4-0.6l0.3-0.5l0.2-0.3L36,85c0.7-1.1,1.2-1.9,1.6-2.6l0.1-0.2c0.3-0.5,0.4-0.8,0.4-0.8c1.4-2.4,19.1-32.9,19.4-33.3
					c10.3-15.8,20.2-23,21-23.6l0.5-0.4l0.2-0.2c0.5-0.4,1.1-0.9,1.6-1.3l0.3-0.2c0.9-0.7,1.8-1.4,2.7-1.9l0.3-0.3
					c0.9-0.6,1.7-1.2,2.6-1.7c0.1-0.1,0.3-0.2,0.4-0.3c0.2-0.2,0.5-0.3,0.7-0.4l0.4-0.3l0.7-0.4l0.5-0.3l0.6-0.4l0.5-0.3l1.6-0.9
					l0.5-0.3l0.5-0.3l1-0.5l0.5-0.2l1-0.5l1.3-0.6l2.1-1c1.1-0.5,2.1-0.8,2.9-1.1l0.3-0.1l0.4-0.2l0.5-0.2l1.4-0.4
					c2.3-0.5,4.6-0.8,7-0.8h1.7h0.8h0.4l0,0c-9.1-5-19.2-8.1-29.6-9.1L82.4,0H81l0,0c-1.3,0-2.6,0-3.6,0C45.5,0.1,17,19.6,5.4,49.2
					c-0.5,1.3-1,2.7-1.4,4c-0.4,1.1-0.7,2.1-1,3.2l-0.6,2.2c-0.3,1-0.5,2-0.7,3.1c-0.2,1-0.3,1.5-0.4,2.2c-0.1,0.8-0.2,1.3-0.3,1.9
					C0.3,69.8,0,73.8,0,77.7l0,0V79.1z"/>
				<path class="st4" d="M115.8,14.2l-0.5-0.2c-1-0.4-2.1-0.5-3.2-0.5H111h-0.4c-1.7,0.2-3.4,0.6-5.1,1.2l-0.5,0.2l-0.3,0.1
					l-0.4,0.2l-0.4,0.2l0,0c-2.4,1.2-4.7,2.6-6.9,4.1l-0.3,0.2c-0.5,0.3-1,0.7-1.4,1c-0.4,0.3-0.6,0.4-0.8,0.6L93.6,22l-0.2,0.1
					l-1.6,1.3l-0.1,0.1l-0.9,0.8l0,0c-0.9,0.8-1.4,1.2-1.4,1.3l0,0l0,0c-0.9,0.8-1.8,1.6-2.6,2.6l0,0c-0.3,0.3-0.6,0.6-0.8,0.9l0,0
					l-0.8,0.9V30l-0.8,0.9l-0.1,0.1c-0.2,0.3-0.4,0.6-0.7,0.8l-0.2,0.2l-0.6,0.8c-2.2,2.7-3.9,5-3.9,5.1c-0.3,0.5-0.7,1.1-1.1,1.7
					l-0.2,0.3l-0.4,0.6l-0.2,0.3l-0.5,0.7l-0.3,0.5c-3.5,5.8-7.2,12.2-7.3,12.3c-0.1,0.1-0.3,0.6-0.5,0.9l0,0
					c0.2-0.4,0.7-0.7,1.1-0.7h81.9c-0.4-1.3-0.7-2.1-1-2.9c-4.3-11.9-11.5-22.6-20.8-31.1l-0.1,0.1L119,29.1l-4.7,3.7
					c-0.6,0.7-1.4,1.1-2.2,1.2c-0.2,0-0.3,0-0.5,0c-0.2-0.1-0.3-0.2-0.5-0.3c-0.1-0.1-0.2-0.2-0.2-0.3c-0.1-0.2-0.1-0.3-0.1-0.5
					c0-0.6,0.2-1.1,0.6-1.6c0.2-0.3,0.5-0.6,0.7-0.9c2.6-2.3,4.6-5.2,5.8-8.4c0.4-1.2,0.6-2.5,0.5-3.8c0-0.4-0.1-0.9-0.2-1.3
					c-0.1-0.5-0.3-0.9-0.6-1.3c0-0.1-0.1-0.1-0.2-0.2c-0.1-0.1-0.2-0.2-0.3-0.3c-0.2-0.2-0.5-0.4-0.8-0.6L115.8,14.2z"/>
				<path class="st4" d="M52.7,151.2c1.1,0.4,2.1,0.7,3.2,1c2.1,0.6,4.2,1.1,6.3,1.5c2.8,0.5,5.6,0.9,8.4,1.2V60c0,0,0-0.1,0-0.1
					l0,0c0-0.1,0-0.2,0-0.2c0-0.1,0-0.1,0-0.2c-0.2-0.3-0.5-0.6-0.9-0.8c-1-0.6-1.5-1.7-1.4-2.9l0,0c0-0.2,0.1-0.3,0.2-0.4l-0.7,1.3
					c-2.5,4.3-6.4,10.5-6.6,10.8c-2.7,4.5-5.6,8.8-8.8,13L52,81.2c-0.4,0.6-0.8,1.1-1.2,1.5L50.5,83L49,85l-0.3,0.4l-0.4,0.5
					L48.2,86c-0.4,0.5-0.6,0.7-0.6,0.7c-2,2.6-4.3,5.1-6.7,7.4l0,0l-0.7,0.7c-1,1-2.1,1.9-3.2,2.8c-0.8,0.7-1.6,1.4-2.4,1.9
					l-1.1,0.8l-0.4,0.3c-2.2,1.4-4.5,2.7-6.9,3.6l-0.6,0.2c-1.3,0.5-2.6,0.9-3.9,1.2l-0.9,0.2l-0.6,0.1c-1.8,0.4-3.7,0.6-5.6,0.6
					c-1.2,0-2.5-0.1-3.7-0.3l-0.8-0.2H9.8l-0.7-0.2l-0.3-0.1l-0.5-0.3l-0.3-0.1c-0.7-0.3-1.3-0.6-1.8-1.1l0,0
					c-1-0.8-1.8-1.7-2.4-2.7l0,0C11.4,125,29.5,143.3,52.7,151.2z"/>
				<g>
					<defs>
						<path id="SVGID_00000063609172854140268600000002028769923758383805_" d="M52.7,151.2c1.1,0.4,2.1,0.7,3.2,1
							c2.1,0.6,4.2,1.1,6.3,1.5c2.8,0.5,5.6,0.9,8.4,1.2V60c0,0,0-0.1,0-0.1l0,0c0-0.1,0-0.2,0-0.2c0-0.1,0-0.1,0-0.2
							c-0.2-0.3-0.5-0.6-0.9-0.8c-1-0.6-1.5-1.7-1.4-2.9l0,0c0-0.2,0.1-0.3,0.2-0.4l-0.7,1.3c-2.5,4.3-6.4,10.5-6.6,10.8
							c-2.7,4.5-5.6,8.8-8.8,13L52,81.2c-0.4,0.6-0.8,1.1-1.2,1.5L50.5,83L49,85l-0.3,0.4l-0.4,0.5L48.2,86
							c-0.4,0.5-0.6,0.7-0.6,0.7c-2,2.6-4.3,5.1-6.7,7.4l0,0l-0.7,0.7c-1,1-2.1,1.9-3.2,2.8c-0.8,0.7-1.6,1.4-2.4,1.9l-1.1,0.8
							l-0.4,0.3c-2.2,1.4-4.5,2.7-6.9,3.6l-0.6,0.2c-1.3,0.5-2.6,0.9-3.9,1.2l-0.9,0.2l-0.6,0.1c-1.8,0.4-3.7,0.6-5.6,0.6
							c-1.2,0-2.5-0.1-3.7-0.3l-0.8-0.2H9.8l-0.7-0.2l-0.3-0.1l-0.5-0.3l-0.3-0.1c-0.7-0.3-1.3-0.6-1.8-1.1l0,0
							c-1-0.8-1.8-1.7-2.4-2.7l0,0C11.4,125,29.5,143.3,52.7,151.2z M116.3,14.5c0.3,0.2,0.5,0.4,0.8,0.6c0.1,0.1,0.2,0.2,0.3,0.3
							c0.1,0.1,0.1,0.1,0.2,0.2c0.3,0.4,0.5,0.8,0.6,1.3c0.1,0.4,0.2,0.9,0.2,1.3c0.1,1.3-0.1,2.5-0.5,3.7c-1.3,3.2-3.2,6.1-5.8,8.4
							c-0.3,0.3-0.5,0.6-0.7,0.9c-0.4,0.4-0.6,1-0.6,1.6c0,0.2,0.1,0.3,0.1,0.5c0.1,0.1,0.1,0.2,0.2,0.3c0.1,0.1,0.3,0.3,0.5,0.3
							c0.2,0,0.3,0,0.5,0c0.9-0.1,1.7-0.5,2.2-1.2l4.7-3.7l10.7-8.4l0.1-0.1c9.3,8.6,16.4,19.3,20.6,31.2c0.3,0.9,0.6,1.7,1,2.9h-82
							c-0.5,0-0.9,0.3-1.1,0.7l0,0c0.2-0.3,0.3-0.6,0.5-0.9s3.7-6.6,7.3-12.3l0.3-0.5l0.5-0.7l0.2-0.3l0.4-0.6l0.2-0.3
							c0.4-0.6,0.7-1.2,1.1-1.7c0,0,1.7-2.3,3.9-5.1l0.6-0.8l0.2-0.2c0.2-0.3,0.5-0.5,0.7-0.8l0.1-0.1l0.8-0.9v-0.1l0.8-0.9l0,0
							c0.3-0.3,0.6-0.6,0.8-0.9l0,0c0.8-0.9,1.6-1.7,2.5-2.4l0,0l0,0c0,0,0.5-0.5,1.4-1.3l0,0l0.9-0.8l0.1-0.1l1.6-1.3l0.2-0.1
							l0.9-0.7c0.3-0.2,0.5-0.4,0.8-0.6s0.9-0.7,1.4-1l0.3-0.2c2.2-1.5,4.4-2.8,6.8-4l0,0l0.4-0.2l0.4-0.2l0.3-0.1l0.5-0.2
							c1.7-0.7,3.5-1.2,5.3-1.5h0.4h1.1c1.1,0,2.1,0.2,3.2,0.5l0.5,0.2L116.3,14.5z M0.1,79.1c0,1.9,0.2,4,0.3,6l0,0l14.9-13.7
							l0.2-0.1c0.3-0.2,0.6-0.3,0.9-0.4h0.3h0.2c0.3,0,0.6,0.1,0.8,0.3c0.4,0.5,0.6,1.1,0.4,1.7c0,0,0,0.1,0,0.1L18,73.5v0.2
							c-0.2,0.4-0.4,0.8-0.7,1.1C9.3,85,7.6,89.1,7.6,89.1l0,0c-1,1.8-1.5,3.9-1.6,6v0.3c0,0,0,0.2,0,0.3c0.1,1.2,0.4,2.3,1.1,3.3
							c0.4,0.5,0.8,1,1.3,1.5l0.4,0.3c0.5,0.4,1.1,0.7,1.8,0.9c1.1,0.4,2.3,0.6,3.5,0.7c0.3,0,0.6,0,0.9,0h0.8h1l1-0.1H18l0,0h0.4
							h0.2c2.5-0.7,4.7-1.9,6.7-3.6l0.3-0.2l0.5-0.4l0.4-0.3c0.2-0.2,0.4-0.3,0.6-0.5l0.3-0.3l0.8-0.8c0.5-0.5,0.9-1,1.5-1.7
							l0.2-0.3c1-1.3,2.1-2.8,3.2-4.4l0.3-0.4l1.4-2.1l0.2-0.3l0.4-0.6l0.3-0.5l0.2-0.3L36,85c0.7-1.1,1.2-1.9,1.6-2.6l0.1-0.2
							c0.3-0.5,0.4-0.8,0.4-0.8c1.4-2.4,19.1-32.9,19.4-33.3c10.3-15.8,20.2-23,21-23.6l0.5-0.4l0.2-0.2c0.5-0.4,1.1-0.9,1.6-1.3
							l0.3-0.2c0.9-0.7,1.8-1.4,2.7-1.9l0.3-0.3c0.9-0.6,1.7-1.2,2.6-1.7c0.1-0.1,0.3-0.2,0.4-0.3c0.2-0.2,0.5-0.3,0.7-0.4l0.4-0.3
							l0.7-0.4l0.5-0.3l0.6-0.4l0.5-0.3l1.6-0.9l0.5-0.3l0.5-0.3l1-0.5l0.5-0.2l1-0.5l1.3-0.6l2.1-1c1.1-0.5,2.1-0.8,2.9-1.1
							l0.3-0.1l0.4-0.2l0.5-0.2l1.4-0.4c2.3-0.5,4.6-0.8,7-0.8h1.7h0.8h0.4l0,0c-9.1-5-19.2-8.1-29.6-9.1L82.4,0H81l0,0
							c-1.3,0-2.6,0-3.6,0C45.5,0.1,17,19.6,5.4,49.2c-0.5,1.3-1,2.7-1.4,4c-0.4,1.1-0.7,2.1-1,3.2l-0.6,2.2c-0.3,1-0.5,2-0.7,3.1
							c-0.2,1-0.3,1.5-0.4,2.2c-0.1,0.8-0.2,1.3-0.3,1.9C0.3,69.8,0,73.8,0,77.7l0,0L0.1,79.1z M144.1,117.4l1.2-2.1l1.1-2.1
							c0.6-1.2,1.1-2.3,1.7-3.5c0.5-1.2,1.2-2.7,1.7-4c3.3-8.5,5-17.5,5.2-26.6v-0.7l0,0c0-0.2,0-0.5,0-0.6v-0.2
							c0-1.3,0-2.8-0.2-4.3c0-0.6,0-1.2-0.1-1.9c0-0.3,0-0.6,0-0.9c-0.2-2.5-0.6-5.1-0.9-7.3c-0.2-0.9-0.3-1.7-0.5-2.6
							c0-0.2-0.1-0.4-0.2-0.6H84.2v20.6l0,0c0.1,0,0.3,0,0.4,0h0.1l0,0c4.9-2.4,10.3-3.9,15.7-4.2h0.5c7.1,0,17.4,4.5,17.8,4.7
							c4.3,2,8.7,3.6,13.2,4.8c2.3,0.6,4.6,0.8,7,0.8h0.8l0,0c0.8,0,1.7-0.2,2.4-0.3h0.4h0.4l0.4-0.1l0.5-0.1l0.6-0.2h0.3
							c0.1,0,0.3,0,0.4,0c0.5,0,1,0.3,1.2,0.8c0.3,0.9-0.3,1.5-1.5,2.4l0,0l0,0c-0.4,0.3-0.8,0.5-1.1,0.7c-0.4,0.2-0.8,0.4-1.2,0.6
							c-0.4,0.2-1.1,0.4-1.6,0.6c-2.8,0.9-5.6,1.3-8.5,1.3c-1.3,0-2.3,0-2.8-0.1h-0.4c-4.2-0.7-8.3-1.9-12.2-3.5
							c-2.2-0.9-4.5-1.7-6.6-2.4l-3.1-1L106,85l-1.1-0.7l-1.2-0.3l-1.5-0.4l-0.5-0.1l-0.9-0.3h-0.3c-1.5-0.3-3-0.5-4.6-0.5
							c-4.4,0-8.6,1.5-11.8,4.4l0,0v67.9l0,0c9.2-0.8,18.2-3.3,26.6-7.3l1.6-0.8c2.7-1.3,5.3-2.8,7.8-4.5l1.1-0.8l1.7-1.2l0.9-0.6
							c2.7-2,5.2-4.2,7.6-6.5l1.2-1.2c3.3-3.3,6.2-7,8.8-10.8l1-1.5C143,118.9,143.5,118.1,144.1,117.4L144.1,117.4z"/>
					</defs>
					<clipPath id="SVGID_00000046333469291918970880000004594035452739871639_">
						<use xlink:href="#SVGID_00000063609172854140268600000002028769923758383805_"  style="overflow:visible;"/>
					</clipPath>
					<g style="clip-path:url(#SVGID_00000046333469291918970880000004594035452739871639_);">
						
							<linearGradient id="SVGID_00000097478124206971145260000010091375204803573120_" gradientUnits="userSpaceOnUse" x1="-30.1901" y1="76.3932" x2="175.4252" y2="92.1174" gradientTransform="matrix(1 0 0 -1 0 155.9383)">
							<stop  offset="0" style="stop-color:#ED2634"/>
							<stop  offset="1" style="stop-color:#ED2634;stop-opacity:0"/>
						</linearGradient>
						
							<polygon style="opacity:0.6;fill:url(#SVGID_00000097478124206971145260000010091375204803573120_);enable-background:new    ;" points="
							84.4,155.5 241.9,136.5 25.5,-9.5 3.4,10 						"/>
						
							<linearGradient id="SVGID_00000003800391314127341560000008246466514418596278_" gradientUnits="userSpaceOnUse" x1="-23.6057" y1="110.0631" x2="87.0447" y2="75.0128" gradientTransform="matrix(1 0 0 -1 0 155.9383)">
							<stop  offset="0" style="stop-color:#ED2634"/>
							<stop  offset="1" style="stop-color:#ED2634;stop-opacity:0"/>
						</linearGradient>
						
							<polygon style="opacity:0.9;fill:url(#SVGID_00000003800391314127341560000008246466514418596278_);enable-background:new    ;" points="
							-80.6,117.2 70.1,155.6 157.7,33.3 140.9,8.6 						"/>
						
							<linearGradient id="SVGID_00000039823362476320771390000001910644324086734015_" gradientUnits="userSpaceOnUse" x1="184.3144" y1="81.6705" x2="75.5424" y2="70.5745" gradientTransform="matrix(1 0 0 -1 0 155.9383)">
							<stop  offset="0" style="stop-color:#ED2634"/>
							<stop  offset="1" style="stop-color:#ED2634;stop-opacity:0"/>
						</linearGradient>
						
							<polygon style="opacity:0.9;fill:url(#SVGID_00000039823362476320771390000001910644324086734015_);enable-background:new    ;" points="
							-80.5,117.2 69.8,156.1 157.8,33.2 141,8.5 						"/>
						
							<radialGradient id="SVGID_00000032648513334867984130000016740520884650426274_" cx="43.4352" cy="-135.5598" r="0.6003" gradientTransform="matrix(1 0 0 -1 0 155.9383)" gradientUnits="userSpaceOnUse">
							<stop  offset="0" style="stop-color:#ED2634"/>
							<stop  offset="0.99" style="stop-color:#ED2634;stop-opacity:0"/>
						</radialGradient>
						
							<polygon style="opacity:0.9;fill:url(#SVGID_00000032648513334867984130000016740520884650426274_);enable-background:new    ;" points="
							-17.5,150.2 72,155.4 162.7,26.4 157.3,16.2 						"/>
						
							<linearGradient id="SVGID_00000182504933263468463210000015400819066721484990_" gradientUnits="userSpaceOnUse" x1="-37.8632" y1="436.4811" x2="47.4581" y2="320.1762" gradientTransform="matrix(0.9939 0.1101 0.1101 -0.9939 13.6443 426.6903)">
							<stop  offset="0" style="stop-color:#EF4D33"/>
							<stop  offset="0.99" style="stop-color:#ED2634;stop-opacity:0"/>
						</linearGradient>
						
							<circle style="opacity:0.8;fill:url(#SVGID_00000182504933263468463210000015400819066721484990_);enable-background:new    ;" cx="61.2" cy="53.2" r="80.8"/>
						<g class="st12">
							<g>
								<circle class="st0" cx="20.4" cy="46.7" r="30.7"/>
							</g>
						</g>
						<g class="st12">
							<g>
								<circle class="st0" cx="112" cy="13.4" r="23.9"/>
							</g>
						</g>
						<g>
							<g>
								<circle class="st2" cx="44.2" cy="17.9" r="30.7"/>
							</g>
						</g>
						<g>
							<g>
								<circle class="st0" cx="132.2" cy="40.5" r="28.4"/>
							</g>
						</g>
						<g>
							
								<linearGradient id="SVGID_00000042012739872276279790000001386382771484353211_" gradientUnits="userSpaceOnUse" x1="46.0269" y1="151.344" x2="147.6727" y2="83.2575" gradientTransform="matrix(1 0 0 -1 0 155.9383)">
								<stop  offset="0" style="stop-color:#EF4D33"/>
								<stop  offset="0.99" style="stop-color:#ED2634;stop-opacity:0"/>
							</linearGradient>
							<polygon style="fill:url(#SVGID_00000042012739872276279790000001386382771484353211_);" points="147.5,72.8 47.7,6.1 
								47.9,5.6 147.8,72.4 							"/>
						</g>
						
							<linearGradient id="SVGID_00000034803714583106204920000016814155593172377998_" gradientUnits="userSpaceOnUse" x1="14.7947" y1="75.3711" x2="71.243" y2="75.3711" gradientTransform="matrix(1 0 0 -1 0 155.9383)">
							<stop  offset="0" style="stop-color:#EF4D33"/>
							<stop  offset="0.99" style="stop-color:#ED2634;stop-opacity:0"/>
						</linearGradient>
						<polygon style="fill:url(#SVGID_00000034803714583106204920000016814155593172377998_);" points="70.8,131 14.8,30.4 
							15.3,30.2 71.2,130.7 						"/>
						
							<radialGradient id="SVGID_00000020383836845567339380000000889426189916984451_" cx="2664.6113" cy="-361.8872" r="37.3353" gradientTransform="matrix(0.2746 2.581488e-03 2.581488e-03 -0.2746 -624.0785 -57.5096)" gradientUnits="userSpaceOnUse">
							<stop  offset="0" style="stop-color:#EF4D33"/>
							<stop  offset="0.99" style="stop-color:#ED2634;stop-opacity:0"/>
						</radialGradient>
						<polygon style="fill:url(#SVGID_00000020383836845567339380000000889426189916984451_);" points="92.4,36.1 92.7,35.7 
							116.5,51.5 116.2,52 						"/>
						
							<radialGradient id="SVGID_00000116199178266934732220000005621720403244577723_" cx="2437.9089" cy="-571.1549" r="65.6466" gradientTransform="matrix(0.28 0 0 -0.28 -618.6403 -55.9895)" gradientUnits="userSpaceOnUse">
							<stop  offset="0" style="stop-color:#EF4D33"/>
							<stop  offset="0.99" style="stop-color:#ED2634;stop-opacity:0"/>
						</radialGradient>
						<polygon style="fill:url(#SVGID_00000116199178266934732220000005621720403244577723_);" points="70.9,131.2 46.3,86.9 
							46.6,86.5 71.2,130.8 						"/>
						<g class="st17">
							<g>
								
									<radialGradient id="SVGID_00000066502526531620418060000011989823058484256139_" cx="1307.2487" cy="1608.2782" r="153.7758" gradientTransform="matrix(0.2 0.25 0.25 -0.2 -521.5726 136.613)" gradientUnits="userSpaceOnUse">
									<stop  offset="0" style="stop-color:#EF4D33"/>
									<stop  offset="0.99" style="stop-color:#ED2634;stop-opacity:0"/>
								</radialGradient>
								<path style="fill:url(#SVGID_00000066502526531620418060000011989823058484256139_);" d="M172.2,163.9
									c-18.7,14.4-43.3,11.3-57.8-7.4s-11.8-45.6,6.8-60s47.4-11,61.8,7.7S190.9,149.5,172.2,163.9z"/>
							</g>
						</g>
					</g>
				</g>
			</g>
		</g>
	</g>
</g>
</svg>
