<?xml version="1.0" encoding="UTF-8" standalone="no"?>
<svg
   version="1.1"
   width="1000"
   height="231.35599"
   xml:space="preserve"
   viewBox="0 0 1000 231.35598"
   id="svg10103"
   xmlns="http://www.w3.org/2000/svg"
   xmlns:svg="http://www.w3.org/2000/svg"><defs
     id="defs834" /><path
     d="m 233.63364,215.96088 c 2.78577,1.43323 8.44854,3.14558 15.54445,3.32273 12.22192,0.26838 18.87233,-4.40167 23.81048,-15.36828 L 338.49424,57.806788 c -2.69452,-1.438594 -8.71155,-3.059696 -13.56918,-3.145582 -8.44318,-0.177141 -19.76871,1.529848 -26.95588,18.782241 L 276.76734,123.49364 235.1634,55.740151 c -2.69451,-0.810551 -9.25903,-1.975382 -14.02006,-1.975382 -14.73394,0 -22.90873,5.389359 -31.44851,14.643598 l -40.43381,44.215293 32.5274,51.21503 c 6.02239,9.34549 13.9288,14.1068 26.77874,14.1068 8.44316,0 15.4532,-1.97538 18.68983,-3.49986 l -39.17779,-59.0414 27.76637,-29.469707 45.55444,71.521737 z M 147.69369,160.6931 c 0,10.77872 -4.22427,16.984 -25.24898,16.984 -2.78576,0 -5.23165,-0.18251 -7.56653,-0.53679 V 34.263231 c 0,-10.875342 3.70188,-22.201586 24.9091,-22.201586 2.69451,0 5.3944,0.268394 7.91178,0.810551 V 160.6931 Z m -43.3395,-21.56817 c 0,20.12958 -13.148664,34.77854 -39.836157,37.65573 -19.317837,2.06664 -47.266705,-0.35965 -60.5621437,-1.88949 -0.4455071,-2.15253 -0.8051335,-4.85258 -0.8051335,-7.01046 0,-17.52079 9.4361642,-21.56281 18.3302072,-21.56281 9.253668,0 23.810482,1.61573 34.593903,1.61573 11.948184,0 15.544443,-4.04202 15.544443,-7.90153 0,-5.03508 -4.766389,-7.10171 -14.020054,-8.89996 L 32.259017,126.27957 C 11.234296,122.23218 0,107.67447 0,92.220319 0,73.438078 13.300806,57.715534 39.446175,54.843714 c 19.768712,-2.157891 43.877927,0.268395 57.087484,1.884129 0.450876,2.243777 0.719255,4.401668 0.719255,6.7367 0,17.520787 -9.268411,21.29978 -18.167817,21.29978 -6.827535,0 -17.449442,-1.261454 -29.58012,-1.261454 -12.313175,0 -17.433824,3.413977 -17.433824,7.54725 0,4.401669 4.852271,6.199912 12.581552,7.55262 l 24.170107,4.492921 c 24.803481,4.57881 35.531378,18.69099 35.531378,36.02927"
     id="path828" /><path
     id="path824"
     d="m 469.97606,0 c -34.06788,0 -64.98611,14.262269 -86.37582,38.031279 20.59531,3.961501 26.95163,21.396569 26.95163,47.543552 h -24.54132 c 0,-15.846007 -3.17348,-23.780163 -12.68479,-23.780163 -3.96126,0 -7.14777,2.389547 -8.7312,5.556601 0,0.789079 -0.79365,1.583108 -0.79365,1.583108 -0.78904,2.377975 -1.58416,4.755574 -1.58416,7.12818 0,31.692013 53.08547,30.108533 53.08547,80.024513 0,19.01843 -15.0564,37.23763 -31.69045,37.23763 22.18948,23.76901 51.50201,38.03128 86.36429,38.03128 33.27348,0 63.38935,-14.26294 84.77908,-37.24286 -19.80631,-4.75059 -36.44293,-32.48105 -36.44292,-76.85202 0,-46.743571 16.63692,-76.062641 37.23764,-79.235064 C 534.94914,13.467947 500.87172,0 469.97606,0 Z m -44.3354,41.209026 h 26.08562 v 61.800954 h 28.55256 V 41.209026 h 26.91073 V 193.30269 h -26.91073 v -65.7514 h -28.55256 v 65.7514 H 425.64066 Z M 565.0485,63.384067 c -13.48263,0 -20.61608,25.35224 -20.61608,51.499223 0,26.94143 7.13881,53.08862 20.61608,53.08862 11.89282,0 20.61601,-25.35248 20.61601,-52.29392 0,-12.67895 -3.96412,-52.293923 -20.61601,-52.293923 z m -210.73051,49.916113 -0.0273,6.33977 c 0.6607,29.81862 11.13025,49.91507 22.9907,49.91507 7.13344,0 12.68688,-7.12855 12.68688,-16.64045 0,-19.01843 -17.41384,-22.9793 -35.65032,-39.61439 z" /><path
     d="M 809.05068,43.576517 H 697.33576 L 686.25767,130.61682 674.40001,43.576517 h -24.60184 l -12.67815,87.153033 h -0.75671 l -9.50658,-87.153033 h -24.59577 l 19.80739,148.164453 h 23.80653 l 13.4681,-94.28696 h 0.75621 l 12.67332,94.28696 h 24.59143 L 713.20978,66.551078 h 22.94241 V 191.74097 h 26.95754 V 66.551078 h 24.54198 V 191.74097 h 27.75734 V 43.576517 Z m 19.01801,0 h 36.46192 l 11.87006,76.020033 12.66119,-76.020033 h 35.66515 V 191.74097 H 900.1519 V 83.298889 L 881.9457,191.74097 H 866.88883 L 848.665,83.191531 h -0.76411 V 191.74097 h -19.8322 z m 109.33722,0 h 61.00519 v 22.974561 h -34.06961 v 37.242412 h 25.35786 v 24.56345 h -25.35786 v 40.40409 H 1000 v 22.97994 h -62.59409 z"
     id="path948" /></svg>
