<?xml version="1.0" encoding="UTF-8" standalone="no"?><!--Created with Inkscape (http://www.inkscape.org/)--><svg xmlns="http://www.w3.org/2000/svg" xml:space="preserve" id="svg1" width="800" height="566.80176" version="1.0"><path id="path3455" d="M393.53616 414.51143H345.7149l.01465-407.183926c.00013-3.3328598-2.12286-6.0076333-5.20097-6.98413916-3.05688-.97650574-6.36847.16982914-8.13046 2.92951736L1.2351938 492.99067c-1.52844408 2.22894-1.63458688 5.07354-.33965522 7.47238 1.23124752 2.42004 3.73619702 3.94235 6.36851842 3.94235H251.72218v55.17871c0 3.84236 3.33285 7.21765 7.32379 7.21765h79.32385c4.05466 0 7.34508-3.37529 7.34508-7.21765V504.4054h47.82126c4.11827 0 7.2813-3.20549 7.2813-7.36626v-75.16142c0-4.05464-3.16303-7.36629-7.2813-7.36629m-141.91789.28775h-92.05163l92.05163-136.08511Z" style="fill:#e0001c"/><path id="path5" d="M795.33269 306.09946 557.10748 443.62148a3.0591741 3.0591741 0 0 1-4.34769-3.83938l2.27015-5.37645c35.13909-83.74624 37.64291-182.50331.0003-272.57558l-2.46609-5.9586a2.9734272 2.9734272 0 0 1 4.23452-3.71192L795.33269 289.9246c6.22275 3.59394 6.22347 12.58218 0 16.17486Z" style="fill:#e0001c"/></svg>